<svg width="1348" height="334" viewBox="0 0 1348 334" fill="none" xmlns="http://www.w3.org/2000/svg">
<g style="mix-blend-mode:plus-lighter" opacity="0.5">
<path d="M15.405 177.125V230.203" stroke="#1C40D0" stroke-miterlimit="10"/>
<path d="M30.8228 167.66V239.666" stroke="#1C40D0" stroke-miterlimit="10"/>
<path d="M46.2229 171.686V249.119" stroke="#1C40D0" stroke-miterlimit="10"/>
<path d="M61.6406 148.756V239.666" stroke="#1C40D0" stroke-miterlimit="10"/>
<path d="M77.0408 139.293V268.035" stroke="#1C40D0" stroke-miterlimit="10"/>
<path d="M92.4583 158.209V277.487" stroke="#1C40D0" stroke-miterlimit="10"/>
<path d="M107.876 120.389V262.608" stroke="#1C40D0" stroke-miterlimit="10"/>
<path d="M123.276 133.256V296.403" stroke="#1C40D0" stroke-miterlimit="10"/>
<path d="M138.694 81.1545V305.855" stroke="#1C40D0" stroke-miterlimit="10"/>
<path d="M261.983 177.125V230.203" stroke="#1C40D0" stroke-miterlimit="10"/>
<path d="M246.565 167.66V239.666" stroke="#1C40D0" stroke-miterlimit="10"/>
<path d="M231.147 171.686V249.119" stroke="#1C40D0" stroke-miterlimit="10"/>
<path d="M215.747 148.756V239.666" stroke="#1C40D0" stroke-miterlimit="10"/>
<path d="M200.33 139.293V268.035" stroke="#1C40D0" stroke-miterlimit="10"/>
<path d="M184.929 158.209V239.667" stroke="#1C40D0" stroke-miterlimit="10"/>
<path d="M169.512 120.389V262.608" stroke="#1C40D0" stroke-miterlimit="10"/>
<path d="M154.094 167.66V277.486" stroke="#1C40D0" stroke-miterlimit="10"/>
<path d="M508.56 177.125V230.203" stroke="#1C40D0" stroke-miterlimit="10"/>
<path d="M493.143 167.66V249.118" stroke="#1C40D0" stroke-miterlimit="10"/>
<path d="M477.725 171.684V224.639" stroke="#1C40D0" stroke-miterlimit="10"/>
<path d="M462.325 148.756V239.666" stroke="#1C40D0" stroke-miterlimit="10"/>
<path d="M446.907 167.66V237.434" stroke="#1C40D0" stroke-miterlimit="10"/>
<path d="M431.49 158.209V249.119" stroke="#1C40D0" stroke-miterlimit="10"/>
<path d="M416.09 86.6548V290.61" stroke="#1C40D0" stroke-miterlimit="10"/>
<path d="M400.672 93.385V323.598" stroke="#1C40D0" stroke-miterlimit="10"/>
<path d="M385.271 68.7874V300.903" stroke="#1C40D0" stroke-miterlimit="10"/>
<path d="M277.383 167.66V239.666" stroke="#1C40D0" stroke-miterlimit="10"/>
<path d="M292.801 171.684V249.117" stroke="#1C40D0" stroke-miterlimit="10"/>
<path d="M308.218 148.756V239.666" stroke="#1C40D0" stroke-miterlimit="10"/>
<path d="M323.619 171.684V230.201" stroke="#1C40D0" stroke-miterlimit="10"/>
<path d="M339.036 158.209V246.192" stroke="#1C40D0" stroke-miterlimit="10"/>
<path d="M354.436 152.623V262.608" stroke="#1C40D0" stroke-miterlimit="10"/>
<path d="M369.854 133.254V296.401" stroke="#1C40D0" stroke-miterlimit="10"/>
<path d="M1001.7 177.125V230.203" stroke="#1C40D0" stroke-miterlimit="10"/>
<path d="M986.298 167.658V239.664" stroke="#1C40D0" stroke-miterlimit="10"/>
<path d="M970.88 171.684V249.117" stroke="#1C40D0" stroke-miterlimit="10"/>
<path d="M955.463 148.756V239.666" stroke="#1C40D0" stroke-miterlimit="10"/>
<path d="M940.062 90.1661V268.034" stroke="#1C40D0" stroke-miterlimit="10"/>
<path d="M924.645 158.205V277.483" stroke="#1C40D0" stroke-miterlimit="10"/>
<path d="M909.245 148.756V262.607" stroke="#1C40D0" stroke-miterlimit="10"/>
<path d="M893.827 133.254V237.433" stroke="#1C40D0" stroke-miterlimit="10"/>
<path d="M878.409 97.592V305.853" stroke="#1C40D0" stroke-miterlimit="10"/>
<path d="M755.121 177.125V230.203" stroke="#1C40D0" stroke-miterlimit="10"/>
<path d="M770.538 167.66V239.666" stroke="#1C40D0" stroke-miterlimit="10"/>
<path d="M785.956 171.686V249.119" stroke="#1C40D0" stroke-miterlimit="10"/>
<path d="M801.356 148.756V239.666" stroke="#1C40D0" stroke-miterlimit="10"/>
<path d="M816.773 139.293V268.035" stroke="#1C40D0" stroke-miterlimit="10"/>
<path d="M832.174 158.209V239.667" stroke="#1C40D0" stroke-miterlimit="10"/>
<path d="M847.592 120.389V262.608" stroke="#1C40D0" stroke-miterlimit="10"/>
<path d="M863.009 142.27V277.488" stroke="#1C40D0" stroke-miterlimit="10"/>
<path d="M1017.12 185.344V239.665" stroke="#1C40D0" stroke-miterlimit="10"/>
<path d="M1032.52 171.686V230.203" stroke="#1C40D0" stroke-miterlimit="10"/>
<path d="M1047.93 133.254V239.665" stroke="#1C40D0" stroke-miterlimit="10"/>
<path d="M1063.35 97.5959V285.904" stroke="#1C40D0" stroke-miterlimit="10"/>
<path d="M1078.75 158.209V277.487" stroke="#1C40D0" stroke-miterlimit="10"/>
<path d="M1094.17 148.756V262.607" stroke="#1C40D0" stroke-miterlimit="10"/>
<path d="M1109.59 153.733V237.434" stroke="#1C40D0" stroke-miterlimit="10"/>
<path d="M1124.99 79.85V305.856" stroke="#1C40D0" stroke-miterlimit="10"/>
<path d="M1248.28 177.125V230.203" stroke="#1C40D0" stroke-miterlimit="10"/>
<path d="M1232.86 167.66V239.666" stroke="#1C40D0" stroke-miterlimit="10"/>
<path d="M1217.46 171.686V249.119" stroke="#1C40D0" stroke-miterlimit="10"/>
<path d="M1202.04 148.756V239.666" stroke="#1C40D0" stroke-miterlimit="10"/>
<path d="M1186.64 171.686V219.86" stroke="#1C40D0" stroke-miterlimit="10"/>
<path d="M1171.22 158.209V239.667" stroke="#1C40D0" stroke-miterlimit="10"/>
<path d="M1155.81 120.389V262.608" stroke="#1C40D0" stroke-miterlimit="10"/>
<path d="M1140.4 142.27V254.047" stroke="#1C40D0" stroke-miterlimit="10"/>
<path d="M1263.69 109.217V278.56" stroke="#1C40D0" stroke-miterlimit="10"/>
<path d="M1279.09 171.686V249.119" stroke="#1C40D0" stroke-miterlimit="10"/>
<path d="M1294.51 148.756V239.666" stroke="#1C40D0" stroke-miterlimit="10"/>
<path d="M523.96 167.66V249.118" stroke="#1C40D0" stroke-miterlimit="10"/>
<path d="M539.378 171.684V224.639" stroke="#1C40D0" stroke-miterlimit="10"/>
<path d="M554.778 148.756V239.666" stroke="#1C40D0" stroke-miterlimit="10"/>
<path d="M570.196 167.66V237.434" stroke="#1C40D0" stroke-miterlimit="10"/>
<path d="M585.613 158.209V249.119" stroke="#1C40D0" stroke-miterlimit="10"/>
<path d="M601.013 114.487V290.61" stroke="#1C40D0" stroke-miterlimit="10"/>
<path d="M616.431 93.385V277.485" stroke="#1C40D0" stroke-miterlimit="10"/>
<path d="M631.832 110.485V337.734" stroke="#1C40D0" stroke-miterlimit="10"/>
<path d="M739.72 167.66V239.666" stroke="#1C40D0" stroke-miterlimit="10"/>
<path d="M724.302 171.686V249.119" stroke="#1C40D0" stroke-miterlimit="10"/>
<path d="M708.902 148.756V239.666" stroke="#1C40D0" stroke-miterlimit="10"/>
<path d="M693.485 171.686V230.203" stroke="#1C40D0" stroke-miterlimit="10"/>
<path d="M678.067 158.209V246.192" stroke="#1C40D0" stroke-miterlimit="10"/>
<path d="M662.667 152.623V230.203" stroke="#1C40D0" stroke-miterlimit="10"/>
<path d="M647.249 152.623V246.192" stroke="#1C40D0" stroke-miterlimit="10"/>
<path d="M41.9031 305.379V326.844H32.9939V305.379H41.9031Z" fill="#1C40D0" stroke="#1C40D0"/>
<path d="M92.6233 298.219V320.55H83.3225V298.219H92.6233Z" fill="#1C40D0" stroke="#1C40D0"/>
<path d="M143.788 301.828V325.026H134.112V301.828H143.788Z" fill="#1C40D0" stroke="#1C40D0"/>
<path d="M193.042 311.793V335.856H182.99V311.793H193.042Z" fill="#1C40D0" stroke="#1C40D0"/>
<path d="M243.166 317.27V342.187H232.722V317.27H243.166Z" fill="#1C40D0" stroke="#1C40D0"/>
<path d="M292.966 309.377V335.159H282.147V309.377H292.966Z" fill="#1C40D0" stroke="#1C40D0"/>
<path d="M336.574 289.877V316.526H325.363V289.877H336.574Z" fill="#1C40D0" stroke="#1C40D0"/>
<path d="M371.81 263.205V290.72H360.224V263.205H371.81Z" fill="#1C40D0" stroke="#1C40D0"/>
<path d="M400.445 232.555V260.936H388.483V232.555H400.445Z" fill="#1C40D0" stroke="#1C40D0"/>
<path d="M426.675 200.797V230.043H414.321V200.797H426.675Z" fill="#1C40D0" stroke="#1C40D0"/>
<path d="M455.225 170.283V200.396H442.495V170.283H455.225Z" fill="#1C40D0" stroke="#1C40D0"/>
<path d="M490.392 143.377V174.356H477.287V143.377H490.392Z" fill="#1C40D0" stroke="#1C40D0"/>
<path d="M533.71 123.78V155.623H520.214V123.78H533.71Z" fill="#1C40D0" stroke="#1C40D0"/>
<path d="M583.374 115.619V148.329H569.502V115.619H583.374Z" fill="#1C40D0" stroke="#1C40D0"/>
<path d="M633.566 119.291V152.867H619.302V119.291H633.566Z" fill="#1C40D0" stroke="#1C40D0"/>
<path d="M681.473 132.377V166.819H666.833V132.377H681.473Z" fill="#1C40D0" stroke="#1C40D0"/>
<path d="M724.315 152.463V187.759H709.3V152.463H724.315Z" fill="#1C40D0" stroke="#1C40D0"/>
<path d="M760.794 177.416V213.577H745.388V177.416H760.794Z" fill="#1C40D0" stroke="#1C40D0"/>
<path d="M796.132 203.334V240.362H780.35V203.334H796.132Z" fill="#1C40D0" stroke="#1C40D0"/>
<path d="M837.03 224.651V262.544H820.872V224.651H837.03Z" fill="#1C40D0" stroke="#1C40D0"/>
<path d="M885.566 234.969V273.728H869.018V234.969H885.566Z" fill="#1C40D0" stroke="#1C40D0"/>
<path d="M935.197 228.078V267.703H918.272V228.078H935.197Z" fill="#1C40D0" stroke="#1C40D0"/>
<path d="M976.52 206.688V247.179H959.203V206.688H976.52Z" fill="#1C40D0" stroke="#1C40D0"/>
<path d="M1007.58 176.781V218.139H989.885V176.781H1007.58Z" fill="#1C40D0" stroke="#1C40D0"/>
<path d="M1028.47 143.196V185.418H1010.4V143.196H1028.47Z" fill="#1C40D0" stroke="#1C40D0"/>
<path d="M1046.02 108.412V151.501H1027.56V108.412H1046.02Z" fill="#1C40D0" stroke="#1C40D0"/>
<path d="M1066.89 74.8344V118.789H1048.06V74.8344H1066.89Z" fill="#1C40D0" stroke="#1C40D0"/>
<path d="M1096.77 45.3674V90.1877H1077.55V45.3674H1096.77Z" fill="#1C40D0" stroke="#1C40D0"/>
<path d="M1136.41 22.637V68.3118H1116.81V22.637H1136.41Z" fill="#1C40D0" stroke="#1C40D0"/>
<path d="M1183.29 7.30499V53.845H1163.31V7.30499H1183.29Z" fill="#1C40D0" stroke="#1C40D0"/>
<path d="M1234.27 0.5V47.9062H1213.9V0.5H1234.27Z" fill="#1C40D0" stroke="#1C40D0"/>
<path d="M1285.98 3.14673V51.4192H1265.23V3.14673H1285.98Z" fill="#1C40D0" stroke="#1C40D0"/>
<path d="M1334.7 14.7952V63.9329H1313.58V14.7952H1334.7Z" fill="#1C40D0" stroke="#1C40D0"/>
</g>
</svg>
