<svg width="1348" height="152" viewBox="0 0 1348 152" fill="none" xmlns="http://www.w3.org/2000/svg">
<g style="mix-blend-mode:plus-lighter" opacity="0.5">
<path d="M39.405 44.6777V97.7551" stroke="#1C40D0" stroke-miterlimit="10"/>
<path d="M54.8228 35.2129V107.219" stroke="#1C40D0" stroke-miterlimit="10"/>
<path d="M70.2229 39.2383V116.671" stroke="#1C40D0" stroke-miterlimit="10"/>
<path d="M85.6406 16.3086V107.218" stroke="#1C40D0" stroke-miterlimit="10"/>
<path d="M101.041 6.8457V135.588" stroke="#1C40D0" stroke-miterlimit="10"/>
<path d="M116.458 25.7617V145.04" stroke="#1C40D0" stroke-miterlimit="10"/>
<path d="M131.876 -12.0586V130.16" stroke="#1C40D0" stroke-miterlimit="10"/>
<path d="M147.276 0.808594V163.956" stroke="#1C40D0" stroke-miterlimit="10"/>
<path d="M162.694 -51.293V173.408" stroke="#1C40D0" stroke-miterlimit="10"/>
<path d="M285.983 44.6777V97.7551" stroke="#1C40D0" stroke-miterlimit="10"/>
<path d="M270.565 35.2129V107.219" stroke="#1C40D0" stroke-miterlimit="10"/>
<path d="M255.147 39.2383V116.671" stroke="#1C40D0" stroke-miterlimit="10"/>
<path d="M239.747 16.3086V107.218" stroke="#1C40D0" stroke-miterlimit="10"/>
<path d="M224.33 6.8457V135.588" stroke="#1C40D0" stroke-miterlimit="10"/>
<path d="M208.929 25.7617V107.219" stroke="#1C40D0" stroke-miterlimit="10"/>
<path d="M193.512 -12.0586V130.16" stroke="#1C40D0" stroke-miterlimit="10"/>
<path d="M178.094 35.2129V145.039" stroke="#1C40D0" stroke-miterlimit="10"/>
<path d="M532.56 44.6777V97.7551" stroke="#1C40D0" stroke-miterlimit="10"/>
<path d="M517.143 35.2129V116.671" stroke="#1C40D0" stroke-miterlimit="10"/>
<path d="M501.725 39.2363V92.1918" stroke="#1C40D0" stroke-miterlimit="10"/>
<path d="M486.325 16.3086V107.218" stroke="#1C40D0" stroke-miterlimit="10"/>
<path d="M470.907 35.2129V104.987" stroke="#1C40D0" stroke-miterlimit="10"/>
<path d="M455.49 25.7617V116.671" stroke="#1C40D0" stroke-miterlimit="10"/>
<path d="M440.09 -45.793V158.162" stroke="#1C40D0" stroke-miterlimit="10"/>
<path d="M424.672 -39.0625V191.151" stroke="#1C40D0" stroke-miterlimit="10"/>
<path d="M409.271 -63.6602V168.456" stroke="#1C40D0" stroke-miterlimit="10"/>
<path d="M301.383 35.2129V107.219" stroke="#1C40D0" stroke-miterlimit="10"/>
<path d="M316.801 39.2363V116.669" stroke="#1C40D0" stroke-miterlimit="10"/>
<path d="M332.218 16.3086V107.218" stroke="#1C40D0" stroke-miterlimit="10"/>
<path d="M347.619 39.2363V97.7532" stroke="#1C40D0" stroke-miterlimit="10"/>
<path d="M363.036 25.7617V113.744" stroke="#1C40D0" stroke-miterlimit="10"/>
<path d="M378.436 20.1758V130.16" stroke="#1C40D0" stroke-miterlimit="10"/>
<path d="M393.854 0.806641V163.954" stroke="#1C40D0" stroke-miterlimit="10"/>
<path d="M1025.7 44.6777V97.7551" stroke="#1C40D0" stroke-miterlimit="10"/>
<path d="M1010.3 35.2109V107.217" stroke="#1C40D0" stroke-miterlimit="10"/>
<path d="M994.88 39.2363V116.669" stroke="#1C40D0" stroke-miterlimit="10"/>
<path d="M979.463 16.3086V107.218" stroke="#1C40D0" stroke-miterlimit="10"/>
<path d="M964.062 -42.2812V135.587" stroke="#1C40D0" stroke-miterlimit="10"/>
<path d="M948.645 25.7578V145.036" stroke="#1C40D0" stroke-miterlimit="10"/>
<path d="M933.245 16.3086V130.159" stroke="#1C40D0" stroke-miterlimit="10"/>
<path d="M917.827 0.806641V104.986" stroke="#1C40D0" stroke-miterlimit="10"/>
<path d="M902.409 -34.8555V173.405" stroke="#1C40D0" stroke-miterlimit="10"/>
<path d="M779.121 44.6777V97.7551" stroke="#1C40D0" stroke-miterlimit="10"/>
<path d="M794.538 35.2129V107.219" stroke="#1C40D0" stroke-miterlimit="10"/>
<path d="M809.956 39.2383V116.671" stroke="#1C40D0" stroke-miterlimit="10"/>
<path d="M825.356 16.3086V107.218" stroke="#1C40D0" stroke-miterlimit="10"/>
<path d="M840.773 6.8457V135.588" stroke="#1C40D0" stroke-miterlimit="10"/>
<path d="M856.174 25.7617V107.219" stroke="#1C40D0" stroke-miterlimit="10"/>
<path d="M871.592 -12.0586V130.16" stroke="#1C40D0" stroke-miterlimit="10"/>
<path d="M887.009 9.82227V145.04" stroke="#1C40D0" stroke-miterlimit="10"/>
<path d="M1041.12 52.8965V107.218" stroke="#1C40D0" stroke-miterlimit="10"/>
<path d="M1056.52 39.2383V97.7551" stroke="#1C40D0" stroke-miterlimit="10"/>
<path d="M1071.93 0.806641V107.218" stroke="#1C40D0" stroke-miterlimit="10"/>
<path d="M1087.35 -34.8516V153.456" stroke="#1C40D0" stroke-miterlimit="10"/>
<path d="M1102.75 25.7617V145.04" stroke="#1C40D0" stroke-miterlimit="10"/>
<path d="M1118.17 16.3086V130.159" stroke="#1C40D0" stroke-miterlimit="10"/>
<path d="M1133.59 21.2852V104.987" stroke="#1C40D0" stroke-miterlimit="10"/>
<path d="M1148.99 -52.5977V173.408" stroke="#1C40D0" stroke-miterlimit="10"/>
<path d="M1272.28 44.6777V97.7551" stroke="#1C40D0" stroke-miterlimit="10"/>
<path d="M1256.86 35.2129V107.219" stroke="#1C40D0" stroke-miterlimit="10"/>
<path d="M1241.46 39.2383V116.671" stroke="#1C40D0" stroke-miterlimit="10"/>
<path d="M1226.04 16.3086V107.218" stroke="#1C40D0" stroke-miterlimit="10"/>
<path d="M1210.64 39.2383V87.4128" stroke="#1C40D0" stroke-miterlimit="10"/>
<path d="M1195.22 25.7617V107.219" stroke="#1C40D0" stroke-miterlimit="10"/>
<path d="M1179.81 -12.0586V130.16" stroke="#1C40D0" stroke-miterlimit="10"/>
<path d="M1164.4 9.82227V121.599" stroke="#1C40D0" stroke-miterlimit="10"/>
<path d="M1287.69 -23.2305V146.112" stroke="#1C40D0" stroke-miterlimit="10"/>
<path d="M1303.09 39.2383V116.671" stroke="#1C40D0" stroke-miterlimit="10"/>
<path d="M1318.51 16.3086V107.218" stroke="#1C40D0" stroke-miterlimit="10"/>
<path d="M547.96 35.2129V116.671" stroke="#1C40D0" stroke-miterlimit="10"/>
<path d="M563.378 39.2363V92.1918" stroke="#1C40D0" stroke-miterlimit="10"/>
<path d="M578.778 16.3086V107.218" stroke="#1C40D0" stroke-miterlimit="10"/>
<path d="M594.196 35.2129V104.987" stroke="#1C40D0" stroke-miterlimit="10"/>
<path d="M609.613 25.7617V116.671" stroke="#1C40D0" stroke-miterlimit="10"/>
<path d="M625.013 -17.9609V158.163" stroke="#1C40D0" stroke-miterlimit="10"/>
<path d="M640.431 -39.0625V145.038" stroke="#1C40D0" stroke-miterlimit="10"/>
<path d="M655.832 -21.9629V205.287" stroke="#1C40D0" stroke-miterlimit="10"/>
<path d="M763.72 35.2129V107.219" stroke="#1C40D0" stroke-miterlimit="10"/>
<path d="M748.302 39.2383V116.671" stroke="#1C40D0" stroke-miterlimit="10"/>
<path d="M732.902 16.3086V107.218" stroke="#1C40D0" stroke-miterlimit="10"/>
<path d="M717.485 39.2383V97.7551" stroke="#1C40D0" stroke-miterlimit="10"/>
<path d="M702.067 25.7617V113.744" stroke="#1C40D0" stroke-miterlimit="10"/>
<path d="M686.667 20.1758V97.7551" stroke="#1C40D0" stroke-miterlimit="10"/>
<path d="M671.249 20.1758V113.744" stroke="#1C40D0" stroke-miterlimit="10"/>
<path d="M395.81 130.758V158.272H384.224V130.758H395.81Z" fill="#1C40D0" stroke="#1C40D0"/>
<path d="M424.445 100.107V128.488H412.483V100.107H424.445Z" fill="#1C40D0" stroke="#1C40D0"/>
<path d="M450.675 68.3496V97.5957H438.321V68.3496H450.675Z" fill="#1C40D0" stroke="#1C40D0"/>
<path d="M479.225 37.8359V67.9482H466.495V37.8359H479.225Z" fill="#1C40D0" stroke="#1C40D0"/>
<path d="M514.392 10.9297V41.9082H501.287V10.9297H514.392Z" fill="#1C40D0" stroke="#1C40D0"/>
<path d="M557.71 -8.66797V23.1758H544.214V-8.66797H557.71Z" fill="#1C40D0" stroke="#1C40D0"/>
<path d="M607.374 -16.8281V15.8818H593.502V-16.8281H607.374Z" fill="#1C40D0" stroke="#1C40D0"/>
<path d="M657.566 -13.1562V20.4199H643.302V-13.1562H657.566Z" fill="#1C40D0" stroke="#1C40D0"/>
<path d="M705.473 -0.0703125V34.3711H690.833V-0.0703125H705.473Z" fill="#1C40D0" stroke="#1C40D0"/>
<path d="M748.315 20.0156V55.3115H733.3V20.0156H748.315Z" fill="#1C40D0" stroke="#1C40D0"/>
<path d="M784.794 44.9688V81.1299H769.388V44.9688H784.794Z" fill="#1C40D0" stroke="#1C40D0"/>
<path d="M820.132 70.8867V107.914H804.35V70.8867H820.132Z" fill="#1C40D0" stroke="#1C40D0"/>
<path d="M861.03 92.2031V130.097H844.872V92.2031H861.03Z" fill="#1C40D0" stroke="#1C40D0"/>
<path d="M909.566 102.521V141.28H893.018V102.521H909.566Z" fill="#1C40D0" stroke="#1C40D0"/>
<path d="M959.197 95.6309V135.256H942.272V95.6309H959.197Z" fill="#1C40D0" stroke="#1C40D0"/>
<path d="M1000.52 74.2402V114.731H983.203V74.2402H1000.52Z" fill="#1C40D0" stroke="#1C40D0"/>
<path d="M1031.58 44.334V85.6914H1013.88V44.334H1031.58Z" fill="#1C40D0" stroke="#1C40D0"/>
<path d="M1052.47 10.748V52.9707H1034.4V10.748H1052.47Z" fill="#1C40D0" stroke="#1C40D0"/>
<path d="M1070.02 -24.0352V19.0537H1051.56V-24.0352H1070.02Z" fill="#1C40D0" stroke="#1C40D0"/>
</g>
</svg>
