<svg width="1353" height="443" viewBox="0 0 1353 443" fill="none" xmlns="http://www.w3.org/2000/svg">
<path d="M0 441.798C15.9605 433.121 31.9211 424.443 47.8816 415.765L47.5097 415.733C53.6372 420.697 59.7648 425.661 65.8923 430.625C70.6807 434.505 75.469 438.384 80.2574 442.263L80.5928 442.535L80.9595 442.294C102.439 428.165 123.918 414.036 145.397 399.907L144.517 400.048C164.229 405.654 183.942 411.261 203.654 416.867L204.406 417.081L205.007 416.552C220.449 402.934 235.892 389.316 251.334 375.698L249.348 375.995C274.211 387.667 299.073 399.339 323.935 411.011L324.841 411.436L325.797 411.054C354.139 399.709 382.481 388.365 410.823 377.021L407.834 376.531C423.656 390.342 439.478 404.152 455.3 417.962L457.221 419.639L459.346 418.158C489.763 396.953 520.181 375.748 550.599 354.543L546.335 354.748C566.44 366.391 586.545 378.034 606.65 389.677L609.003 391.039L611.307 389.496C642.151 368.843 672.995 348.189 703.84 327.535L698.321 327.662C709.013 334.31 719.706 340.959 730.398 347.607L733.383 349.463L736.298 347.383C762.981 328.35 789.665 309.316 816.348 290.282L816.644 290.053C844.759 267.189 872.875 244.324 900.99 221.459L897.44 222.932C925.43 220.362 953.42 217.792 981.411 215.222L983.732 215.009L985.526 213.385C1012 189.413 1038.48 165.441 1064.96 141.47L1054.43 141.457C1075.16 160.783 1095.88 180.109 1116.61 199.435L1121.74 204.221L1127.36 199.853C1163.54 171.755 1199.71 143.656 1235.88 115.558C1256.46 99.5758 1277.03 83.5937 1297.61 67.6118C1299.63 66.0453 1300.93 63.7447 1301.24 61.2088C1301.54 58.6733 1300.81 56.1101 1299.22 54.0905C1297.64 52.0708 1295.32 50.7622 1292.78 50.4596C1290.24 50.1567 1287.7 50.8846 1285.7 52.4761C1285.7 52.4761 1285.7 52.4761 1285.7 52.4761C1265.33 68.7104 1244.95 84.9446 1224.57 101.179C1188.75 129.721 1152.92 158.263 1117.1 186.805L1127.85 187.224C1106.89 168.154 1085.93 149.085 1064.97 130.016L1059.65 125.175L1054.44 130.004C1028.27 154.3 1002.09 178.596 975.907 202.892L980.022 201.055C952.065 203.97 924.109 206.885 896.152 209.8L894.113 210.012L892.601 211.273C864.77 234.482 836.938 257.692 809.107 280.901L809.403 280.672C782.956 300.033 756.51 319.394 730.063 338.755L735.963 338.532C725.19 332.016 714.416 325.5 703.643 318.984L700.805 317.268L698.124 319.111C667.536 340.144 636.949 361.176 606.361 382.208L611.017 382.028C590.77 370.633 570.523 359.239 550.276 347.845L548.05 346.592L546.013 348.05C515.859 369.628 485.704 391.206 455.55 412.784L459.596 412.979C443.605 399.365 427.614 385.751 411.623 372.136L410.258 370.974L408.634 371.647C380.434 383.339 352.234 395.032 324.033 406.725L325.895 406.767C300.891 395.402 275.887 384.038 250.883 372.673L249.779 372.171L248.897 372.969C233.623 386.776 218.35 400.583 203.076 414.39L204.429 414.075C184.65 408.711 164.87 403.348 145.09 397.985L144.611 397.855L144.21 398.125C122.906 412.518 101.603 426.911 80.2991 441.303L81.0012 441.334C76.1654 437.514 71.3296 433.694 66.4938 429.874C60.3056 424.985 54.1174 420.097 47.9292 415.209L47.7514 415.068L47.5573 415.177C31.7049 424.051 15.8524 432.925 0 441.798Z" fill="#1C40D0"/>
<circle cx="145.438" cy="401.932" r="15.5574" fill="white" stroke="#1C40D0" stroke-width="0.885138"/>
<circle cx="145.437" cy="401.932" r="6.14885" fill="#1C40D0"/>
<circle cx="460.508" cy="413.188" r="10.9451" fill="white" stroke="#1C40D0" stroke-width="0.622719"/>
<circle cx="460.508" cy="413.188" r="4.32589" fill="#1C40D0"/>
<circle cx="731.34" cy="337.258" r="17.8153" fill="white" stroke="#1C40D0" stroke-width="1.0136"/>
<circle cx="731.34" cy="337.258" r="7.04123" fill="#1C40D0"/>
<circle cx="1061.14" cy="132.355" r="26.212" fill="white" stroke="#1C40D0" stroke-width="1.49133"/>
<circle cx="1061.13" cy="132.355" r="10.3599" fill="#1C40D0"/>
<circle cx="1299.44" cy="52.6869" r="40.9839" fill="white" stroke="#1C40D0" stroke-width="2.33177"/>
<circle cx="1299.44" cy="52.6876" r="16.1983" fill="#1C40D0"/>
</svg>
