<svg width="143" height="48" viewBox="0 0 143 48" fill="none" xmlns="http://www.w3.org/2000/svg">
<g clip-path="url(#clip0_3001_10198)">
<mask id="mask0_3001_10198" style="mask-type:luminance" maskUnits="userSpaceOnUse" x="0" y="0" width="143" height="48">
<path d="M142.71 0H0V48H142.71V0Z" fill="white"/>
</mask>
<g mask="url(#mask0_3001_10198)">
<path d="M97.9689 0.644979V11.7454L108.424 0.678925H115.757L105.335 11.2023L116.775 27.3946H109.375L101.33 15.3777L97.9689 18.7723V27.3946H92.0622V0.644979H97.9689ZM70.744 18.5007C70.744 22.0651 73.5276 23.4569 76.6506 23.4569C78.7214 23.4569 81.8444 22.8458 81.8444 20.1301C81.8444 17.2447 77.8388 16.7694 73.901 15.7171C69.9632 14.6648 65.9236 13.1372 65.9236 8.11315C65.9576 2.61386 71.1174 0 75.9378 0C81.505 0 86.6648 2.44413 86.6648 8.62235H80.9958C80.826 5.39745 78.5177 4.58274 75.7341 4.58274C73.867 4.58274 71.6945 5.36351 71.6945 7.60396C71.6945 9.67468 72.9844 9.91231 79.6719 11.6436C81.6068 12.1188 87.6153 13.3748 87.6153 19.4512C87.6153 24.3734 83.7454 28.0396 76.4809 28.0396C70.5743 28.0396 65.0071 25.1202 65.1089 18.5347L70.744 18.5007ZM47.4229 17.041H54.348L50.9873 7.23055H50.9194L47.4229 17.041ZM47.9661 0.644979H54.0085L64.0226 27.3946H57.9123L55.8755 21.454H45.8614L43.7907 27.3946H37.8501L47.9661 0.644979ZM26.6818 0.746818V20.7412C26.6818 20.7412 26.6818 27.4625 20.0283 27.4625V17.4823H6.68741V20.8091H16.7016C16.7016 20.8091 16.7016 27.4965 10.0141 27.4965H0V17.4144C0 10.761 6.68741 10.761 6.68741 10.761H16.7016C20.0283 10.761 20.0283 7.46818 20.0283 7.46818H0.0339463C0.0339463 7.46818 0 0.746818 6.68741 0.746818H26.6818Z" fill="#BD2539"/>
<path d="M129.573 23.0835C134.868 23.0835 136.837 18.6025 136.837 14.1216C136.837 9.43706 134.868 4.95615 129.573 4.95615C124.277 4.95615 122.308 9.43706 122.308 14.1216C122.308 18.5686 124.277 23.0835 129.573 23.0835ZM129.573 0C137.856 0 142.71 6.17822 142.71 14.1216C142.71 21.8274 137.856 28.0057 129.573 28.0057C121.29 28.0057 116.436 21.8274 116.436 14.1216C116.436 6.17822 121.29 0 129.573 0Z" fill="#BD2539"/>
<path d="M0.611084 45.3182V35.915H1.49369V45.3182H0.611084Z" fill="#161515"/>
<path d="M4.61676 45.3185H3.836V38.5632H4.61676V39.5136C4.88833 39.2081 5.2278 38.9366 5.6012 38.6989C5.97461 38.4953 6.38197 38.3595 6.82327 38.3934C7.23062 38.3934 7.60403 38.4613 7.97744 38.5971C8.35085 38.7668 8.65637 39.0045 8.89399 39.3439C9.06372 39.5815 9.16556 39.8192 9.19951 40.0907C9.23345 40.3623 9.23345 40.6339 9.23345 40.9054V45.3185H8.45269V40.9054C8.48664 40.4302 8.35085 39.921 8.04533 39.5476C7.67193 39.2081 7.19668 39.0384 6.68748 39.1063C6.44986 39.1063 6.21224 39.1402 6.00856 39.2081C5.80488 39.276 5.63515 39.3779 5.46542 39.5136C5.1599 39.7513 4.92228 40.0568 4.78649 40.4302C4.7186 40.6339 4.65071 40.8376 4.65071 41.0752C4.61676 41.2789 4.61676 41.5165 4.61676 41.7202V45.3185Z" fill="#161515"/>
<path d="M11.5418 43.2138C11.6097 43.689 11.8473 44.1303 12.2207 44.4359C12.6281 44.7074 13.1033 44.8093 13.5786 44.8093C13.8162 44.8093 14.0877 44.7753 14.3254 44.7074C14.529 44.6395 14.6988 44.5377 14.8346 44.4359C14.9704 44.334 15.0722 44.1982 15.1401 44.0285C15.208 43.8927 15.2419 43.723 15.2419 43.5533C15.2759 43.2817 15.1401 43.0101 14.9364 42.8064C14.6988 42.6367 14.4272 42.5009 14.1217 42.433C13.7822 42.3312 13.4428 42.2633 13.0694 42.1954C12.696 42.1275 12.3565 42.0257 12.017 41.8899C11.7115 41.7541 11.4399 41.5844 11.2023 41.3467C10.9647 41.0412 10.8629 40.7018 10.8968 40.3284C10.8968 39.7852 11.1005 39.276 11.5078 38.9366C12.017 38.5292 12.6281 38.3595 13.273 38.3934C13.918 38.3595 14.529 38.5292 15.0722 38.8687C15.5814 39.276 15.8869 39.8531 15.8869 40.4981H15.0722C15.0382 40.0568 14.8346 39.6494 14.4612 39.4118C14.0877 39.1742 13.6464 39.0723 13.2391 39.1063C12.8317 39.0723 12.4244 39.1742 12.1189 39.4118C11.8473 39.6155 11.7115 39.921 11.7115 40.2605C11.7115 40.532 11.8133 40.8036 12.017 40.9733C12.2547 41.1431 12.5262 41.2789 12.8317 41.3807C13.1712 41.4825 13.5107 41.5844 13.8841 41.6523C14.2575 41.7202 14.5969 41.8559 14.9364 41.9917C15.2419 42.1275 15.5135 42.3312 15.7511 42.5688C15.9887 42.8743 16.0906 43.2138 16.0566 43.5872C16.0566 43.8927 15.9887 44.1982 15.853 44.4359C15.7172 44.6735 15.5135 44.9111 15.2759 45.0469C15.0043 45.2166 14.7327 45.3524 14.3933 45.4203C14.0199 45.5221 13.6464 45.5561 13.307 45.5561C12.9336 45.5561 12.5941 45.4882 12.2546 45.3864C11.9491 45.2845 11.6776 45.1148 11.4739 44.8772C11.2702 44.6735 11.1005 44.4359 10.9647 44.1643C10.8289 43.8927 10.761 43.5872 10.761 43.2477L11.5418 43.2138Z" fill="#161515"/>
<path d="M18.5008 48.0001H17.72V38.5631H18.5008V39.7512H18.5347C18.6365 39.5475 18.8063 39.3438 18.976 39.1741C19.1457 39.0044 19.3494 38.8686 19.5531 38.7328C19.7568 38.6309 19.9944 38.5291 20.232 38.4612C20.4696 38.3933 20.6733 38.3594 20.9109 38.3594C21.3862 38.3594 21.8614 38.4273 22.3027 38.6309C22.6761 38.8007 23.0156 39.0722 23.2532 39.3778C23.5248 39.7172 23.6945 40.0906 23.7964 40.498C23.8982 40.9393 23.9661 41.4145 23.9661 41.8898C23.9661 42.365 23.8982 42.8063 23.7964 43.2476C23.6945 43.655 23.4909 44.0623 23.2532 44.4018C23.0156 44.7413 22.6761 45.0128 22.3027 45.1826C21.8954 45.3863 21.4201 45.4881 20.9788 45.4881C20.5036 45.4881 20.0283 45.3863 19.587 45.1486C19.1457 44.9449 18.8063 44.6055 18.5347 44.1981L18.5008 48.0001ZM18.5008 41.9577C18.5008 42.3311 18.5687 42.7045 18.6705 43.044C18.7723 43.3834 18.9081 43.6889 19.1118 43.9605C19.3155 44.1981 19.5531 44.4358 19.8247 44.5715C20.1302 44.7413 20.4357 44.8092 20.7752 44.8092C21.1486 44.8092 21.488 44.7413 21.8275 44.5715C22.133 44.4018 22.3706 44.1981 22.5743 43.8926C22.778 43.5871 22.9138 43.2816 22.9817 42.9082C23.0835 42.5008 23.1175 42.1274 23.0835 41.7201C23.0835 41.3466 23.0156 40.9393 22.9138 40.5998C22.8119 40.2943 22.6422 40.0227 22.4385 39.7851C22.2348 39.5475 21.9972 39.3778 21.7257 39.2759C21.4201 39.1401 21.1146 39.1062 20.8091 39.1062C20.4696 39.1062 20.1302 39.1741 19.8247 39.3099C19.5531 39.4457 19.2815 39.6493 19.1118 39.9209C18.9081 40.1925 18.7723 40.498 18.6705 40.8375C18.5687 41.1769 18.5008 41.5843 18.5008 41.9577Z" fill="#161515"/>
<path d="M25.6974 37.0692V35.915H26.58V37.0692H25.6974ZM25.7313 45.3182V38.5629H26.5121V45.3182H25.7313Z" fill="#161515"/>
<path d="M29.3296 45.3182H28.5489V38.5629H29.3296V39.8189H29.3636C29.5333 39.3776 29.8049 38.9702 30.2122 38.6986C30.6196 38.461 31.0948 38.3592 31.5701 38.3931V39.2418C31.1967 39.2078 30.8233 39.2757 30.4838 39.4455C30.2122 39.5812 29.9746 39.7849 29.8049 40.0565C29.6351 40.3281 29.5333 40.6336 29.4654 40.9391C29.3975 41.2786 29.3636 41.652 29.3636 42.0254L29.3296 45.3182Z" fill="#161515"/>
<path d="M33.3692 42.1275C33.3692 42.467 33.4032 42.8404 33.505 43.1798C33.6068 43.4854 33.7426 43.7909 33.9124 44.0285C34.116 44.2661 34.3537 44.4698 34.6252 44.6056C35.3721 44.945 36.2547 44.8772 36.9336 44.4359C37.307 44.1643 37.5786 43.7569 37.6465 43.2817H38.5291C38.4272 43.5872 38.3254 43.8927 38.1556 44.1643C37.9859 44.4359 37.8162 44.6735 37.5786 44.8772C37.3409 45.0808 37.0354 45.2506 36.7299 45.3524C36.3565 45.4882 35.9831 45.5221 35.6097 45.5221C35.1344 45.5221 34.6592 45.4542 34.2179 45.2506C33.8445 45.0808 33.505 44.8093 33.2334 44.5037C32.9619 44.1643 32.7921 43.7909 32.6563 43.3835C32.5206 42.9422 32.4527 42.467 32.4866 41.9917C32.4866 41.5165 32.5545 41.0412 32.6903 40.5999C32.8261 40.1926 33.0298 39.7852 33.3013 39.4458C33.5729 39.1063 33.9124 38.8687 34.2858 38.665C34.6931 38.4613 35.1344 38.3934 35.6097 38.3934C36.4583 38.3595 37.273 38.6989 37.8162 39.3439C38.3593 39.9889 38.5969 40.9054 38.5969 42.1275H33.3692ZM37.7822 41.4825C37.7822 41.177 37.7483 40.8376 37.6465 40.532C37.5786 40.2605 37.4088 39.9889 37.2391 39.7852C37.0694 39.5815 36.8317 39.3779 36.5602 39.276C36.2547 39.1402 35.9491 39.0723 35.6436 39.1063C35.3381 39.1063 35.0326 39.1742 34.7271 39.31C34.4555 39.4458 34.2518 39.6155 34.0481 39.8192C33.8445 40.0568 33.7087 40.2944 33.6068 40.566C33.505 40.8715 33.4032 41.177 33.4032 41.4825H37.7822Z" fill="#161515"/>
<path d="M45.3523 35.915H46.133V45.3182H45.3523V44.13H45.3183C45.2165 44.3677 45.0467 44.5374 44.877 44.7411C44.7073 44.9108 44.5036 45.0466 44.2999 45.1484C44.0962 45.2503 43.8586 45.3521 43.6549 45.42C43.4173 45.4879 43.2136 45.5218 42.976 45.5218C42.5008 45.5218 42.0255 45.4539 41.5842 45.2503C41.2108 45.0805 40.9053 44.809 40.6337 44.5035C40.3622 44.164 40.1924 43.7906 40.0906 43.3832C39.9887 42.9419 39.9208 42.4667 39.9208 41.9914C39.9208 41.5162 39.9887 41.0749 40.0906 40.6336C40.1924 40.2262 40.3961 39.8189 40.6337 39.4794C40.8713 39.1399 41.2108 38.8684 41.5842 38.6986C41.9916 38.495 42.4668 38.3931 42.9081 38.3931C43.3834 38.3931 43.8586 38.495 44.2999 38.6986C44.7412 38.9023 45.0807 39.2418 45.3523 39.6491V35.915ZM45.3523 41.9235C45.3523 41.5501 45.3183 41.1767 45.1825 40.8373C45.0807 40.4978 44.9449 40.1923 44.7412 39.9207C44.5375 39.6831 44.2999 39.4455 44.0283 39.3097C43.7228 39.1399 43.4173 39.072 43.0779 39.072C42.7044 39.072 42.331 39.1399 42.0255 39.3097C41.72 39.4794 41.4824 39.6831 41.3126 39.9546C41.109 40.2602 40.9732 40.5657 40.9053 40.9391C40.8035 41.3464 40.7695 41.7199 40.8035 42.1272C40.8035 42.5006 40.8713 42.908 40.9732 43.2474C41.075 43.553 41.2448 43.8245 41.4484 44.0961C41.6521 44.3337 41.8897 44.5034 42.1952 44.6053C42.5008 44.7411 42.8063 44.775 43.1118 44.775C43.4513 44.775 43.7907 44.7071 44.0962 44.5374C44.3678 44.4016 44.6394 44.1979 44.8091 43.9264C45.0128 43.6548 45.1486 43.3493 45.2504 43.0098C45.3183 42.6703 45.3523 42.2969 45.3523 41.9235Z" fill="#161515"/>
<path d="M52.6167 45.3182H51.836V35.915H52.6167V39.6491C52.8544 39.2418 53.2278 38.9023 53.6691 38.6986C54.1104 38.495 54.5856 38.3931 55.0609 38.3931C55.5361 38.3931 55.9774 38.495 56.3848 38.6986C56.7582 38.9023 57.0637 39.1399 57.3353 39.4794C57.5729 39.8189 57.7766 40.2262 57.8784 40.6336C58.0142 41.0749 58.0481 41.5162 58.0481 41.9914C58.0481 42.4667 57.9803 42.9419 57.8784 43.3832C57.7766 43.7906 57.6068 44.164 57.3353 44.5035C57.0977 44.809 56.7582 45.0805 56.3848 45.2503C55.9435 45.4539 55.4682 45.5558 54.993 45.5218C54.7554 45.5218 54.5517 45.4879 54.3141 45.42C54.0764 45.3521 53.8728 45.2842 53.6691 45.1484C53.4654 45.0466 53.2617 44.8769 53.092 44.7411C52.9223 44.5713 52.7525 44.3677 52.6507 44.13H52.6167V45.3182ZM52.6167 41.9235C52.6167 42.2969 52.6507 42.7043 52.7525 43.0777C52.8544 43.4172 52.9902 43.7227 53.1938 43.9943C53.3975 44.2658 53.6351 44.4695 53.9067 44.6053C54.2122 44.775 54.5517 44.8429 54.8911 44.8429C55.1967 44.8429 55.5022 44.775 55.8077 44.6732C56.0793 44.5713 56.3508 44.3677 56.5206 44.164C56.7242 43.9264 56.894 43.6548 57.0298 43.3153C57.1655 42.9419 57.1995 42.5685 57.1995 42.1951C57.1995 41.7877 57.1655 41.4143 57.0976 41.007C57.0298 40.6675 56.894 40.3281 56.6903 40.0225C56.4866 39.751 56.249 39.5133 55.9435 39.3776C55.604 39.2078 55.2645 39.1399 54.8911 39.1399C54.5517 39.1399 54.2122 39.2078 53.9406 39.3776C53.6691 39.5133 53.4315 39.751 53.2278 39.9886C53.0241 40.2602 52.8544 40.5657 52.7865 40.9051C52.6846 41.1767 52.6167 41.5501 52.6167 41.9235Z" fill="#161515"/>
<path d="M59.6776 47.1512L59.9831 47.1851C60.0849 47.219 60.2207 47.219 60.3225 47.219C60.5262 47.219 60.7299 47.1512 60.8657 47.0154C61.0015 46.8796 61.1373 46.7099 61.2052 46.5062C61.307 46.3025 61.3749 46.0988 61.4428 45.8951C61.5107 45.6915 61.5786 45.5217 61.6465 45.352L59.0326 38.5288H59.9152L62.0877 44.3336L64.2603 38.5288H65.109L62.5969 45.2162C62.4272 45.6575 62.2914 46.0309 62.1557 46.3704C62.0199 46.6759 61.8841 46.9475 61.6804 47.253C61.5446 47.4567 61.3409 47.6604 61.1373 47.7961C60.9336 47.9319 60.696 47.9998 60.4244 47.9659C60.2886 47.9659 60.1528 47.9659 60.017 47.9319C59.9152 47.898 59.7794 47.898 59.6776 47.864V47.1512Z" fill="#161515"/>
<path d="M70.4046 42.5007C70.4385 42.8741 70.5064 43.2475 70.6762 43.5531C70.8119 43.8246 71.0156 44.0622 71.2532 44.2659C71.4909 44.4696 71.7964 44.6054 72.0679 44.6733C72.4074 44.7751 72.7469 44.8091 73.0863 44.8091C73.4597 44.8091 73.8332 44.7751 74.1726 44.6393C74.4442 44.5375 74.7158 44.4017 74.9194 44.198C75.0892 44.0283 75.2589 43.8246 75.3268 43.587C75.4286 43.3494 75.4626 43.1117 75.4626 42.8402C75.4626 42.5347 75.3947 42.2291 75.225 41.9576C75.0552 41.72 74.8176 41.5502 74.58 41.4144C74.2745 41.2787 73.9689 41.1429 73.6634 41.075C73.324 40.9731 72.9845 40.9052 72.6111 40.8034C72.2377 40.7016 71.8982 40.6337 71.5588 40.4979C71.2193 40.3961 70.9138 40.2263 70.6422 40.0226C70.3706 39.819 70.167 39.5813 69.9972 39.2758C69.8275 38.9364 69.7257 38.529 69.7596 38.1217C69.7596 37.7822 69.8275 37.4767 69.9633 37.1712C70.0991 36.8656 70.3027 36.5941 70.5743 36.3564C70.8798 36.1188 71.2193 35.9151 71.5588 35.7794C72.0001 35.6436 72.4753 35.5757 72.9506 35.5757C73.4258 35.5757 73.901 35.6436 74.3423 35.7794C74.7158 35.9151 75.0552 36.1188 75.3268 36.3904C75.5984 36.628 75.802 36.9335 75.9039 37.273C76.0397 37.6125 76.1076 37.9859 76.1076 38.3593H75.2589C75.2589 38.0538 75.191 37.7143 75.0552 37.4427C74.9534 37.2051 74.7497 36.9675 74.546 36.7977C74.3084 36.628 74.0708 36.4922 73.7992 36.4243C73.5276 36.3564 73.2221 36.3225 72.9506 36.2886C72.5771 36.2886 72.1698 36.3564 71.7964 36.4922C71.5248 36.5941 71.2532 36.7638 71.0496 36.9675C70.8798 37.1712 70.744 37.4088 70.6762 37.6464C70.6083 37.884 70.6083 38.1217 70.6422 38.3593C70.6762 38.6308 70.8119 38.9024 71.0156 39.1061C71.2193 39.3098 71.4569 39.4456 71.7285 39.5474C72.034 39.6832 72.3395 39.7511 72.645 39.819C72.9845 39.8869 73.324 39.9887 73.6634 40.0566C74.0029 40.1245 74.3424 40.2263 74.6818 40.3621C74.9873 40.4639 75.2928 40.6337 75.5644 40.8374C75.836 41.041 76.0397 41.2787 76.1754 41.5842C76.3452 41.9236 76.4131 42.331 76.4131 42.7044C76.447 43.4852 76.1076 44.232 75.4965 44.7412C74.8855 45.2164 74.0368 45.454 72.9506 45.454C72.4753 45.454 72.034 45.3862 71.5927 45.2504C71.1853 45.1485 70.8119 44.9449 70.5064 44.6733C70.2009 44.4017 69.9633 44.0962 69.7936 43.7228C69.6238 43.3154 69.522 42.8402 69.522 42.3649L70.4046 42.5007Z" fill="#161515"/>
<path d="M82.6931 40.6674C82.5913 40.1922 82.3197 39.7848 81.9803 39.4793C81.6069 39.1738 81.1656 39.038 80.6903 39.0719C80.3508 39.0719 79.9774 39.1398 79.6719 39.3096C79.4003 39.4793 79.1627 39.683 78.959 39.9545C78.7554 40.2261 78.6196 40.5656 78.5517 40.8711C78.4499 41.2106 78.4159 41.55 78.4159 41.9234C78.4159 42.2629 78.4499 42.6363 78.5517 42.9758C78.6196 43.3152 78.7554 43.6207 78.959 43.8923C79.1288 44.1639 79.3664 44.3676 79.6719 44.5373C79.9774 44.707 80.3508 44.7749 80.7243 44.7749C81.2334 44.8089 81.7426 44.6391 82.116 44.2997C82.4895 43.9602 82.7271 43.485 82.795 42.9758H83.6097C83.5418 43.3152 83.44 43.6886 83.2702 43.9942C83.1344 44.2997 82.9308 44.5712 82.6931 44.8089C82.4555 45.0465 82.15 45.2162 81.8445 45.3181C81.0298 45.5896 80.1132 45.5557 79.2985 45.2162C78.9251 45.0465 78.5856 44.7749 78.3141 44.4694C78.0425 44.1299 77.8728 43.7565 77.737 43.3492C77.6012 42.9079 77.5672 42.4326 77.5672 41.9574C77.5672 41.4821 77.6351 41.0408 77.7709 40.5995C77.9067 40.1922 78.1104 39.7848 78.382 39.4454C78.6535 39.1059 78.993 38.8343 79.3664 38.6646C79.7738 38.4609 80.249 38.3591 80.7243 38.3591C81.4032 38.3251 82.0821 38.5288 82.6252 38.9362C83.1344 39.3775 83.4739 40.0224 83.5418 40.7014H82.6931V40.6674Z" fill="#161515"/>
<path d="M88.2603 41.3804C88.3961 41.3804 88.5998 41.3464 88.8035 41.3125C88.9732 41.2786 89.1429 41.2446 89.3127 41.1767C89.4484 41.1088 89.5163 41.007 89.5503 40.8712C89.5842 40.7354 89.5842 40.5996 89.5842 40.4638C89.5842 40.0904 89.4484 39.751 89.2108 39.4794C88.8374 39.1739 88.3622 39.0381 87.9209 39.106C87.6832 39.106 87.4117 39.1399 87.174 39.1739C86.9704 39.2078 86.7667 39.3097 86.563 39.4115C86.3933 39.5473 86.2575 39.6831 86.1556 39.8868C86.0538 40.1244 85.952 40.362 85.952 40.6336H85.1712C85.1712 40.2941 85.273 39.9207 85.4428 39.6152C85.5786 39.3436 85.8162 39.106 86.0538 38.9363C86.3254 38.7665 86.597 38.6307 86.9025 38.5289C87.2419 38.461 87.5814 38.3931 87.9548 38.3931C88.2943 38.3931 88.5998 38.4271 88.9053 38.495C89.1769 38.5629 89.4484 38.6647 89.6861 38.8344C89.9237 39.0042 90.0934 39.2418 90.1953 39.4794C90.331 39.7849 90.3989 40.1244 90.365 40.4638V44.13C90.365 44.4356 90.4329 44.6392 90.5347 44.7071C90.6366 44.775 90.8742 44.775 91.1797 44.6392V45.2503L90.9081 45.3182C90.8063 45.3521 90.6705 45.386 90.5686 45.386C90.4668 45.386 90.331 45.3861 90.2292 45.3521C90.1274 45.3521 89.9916 45.2842 89.9237 45.2163C89.8558 45.1484 89.7879 45.0805 89.72 44.9787C89.6861 44.8769 89.6521 44.775 89.6182 44.6732C89.5842 44.5713 89.5842 44.4356 89.5842 44.3337C89.2787 44.6732 88.8713 44.9787 88.43 45.1824C87.9887 45.3861 87.5135 45.4879 87.0383 45.4879C86.7327 45.4879 86.4612 45.4539 86.1896 45.3521C85.918 45.2842 85.6804 45.1484 85.4767 44.9787C85.273 44.809 85.1033 44.6053 84.9675 44.3677C84.8317 44.0961 84.7639 43.8245 84.7978 43.519C84.7978 42.3648 85.5786 41.6859 87.174 41.4822L88.2603 41.3804ZM89.5842 41.7538C89.2448 41.8896 88.9053 41.9914 88.5658 42.0254C88.2264 42.0593 87.8869 42.0933 87.5474 42.1272C87.0382 42.1272 86.563 42.263 86.1556 42.5346C85.8162 42.7722 85.6465 43.1456 85.6465 43.553C85.6465 43.7566 85.6804 43.9264 85.7822 44.0961C85.8501 44.2319 85.9859 44.3677 86.1217 44.4695C86.2575 44.5713 86.4272 44.6392 86.5969 44.7071C86.7667 44.7411 86.9704 44.775 87.1401 44.775C87.4456 44.775 87.7511 44.7411 88.0566 44.6392C88.3282 44.5713 88.5998 44.4356 88.8374 44.2658C89.075 44.0961 89.2448 43.8924 89.3805 43.6548C89.5163 43.3832 89.5842 43.0777 89.5842 42.7722V41.7538Z" fill="#161515"/>
<path d="M93.2165 45.3185H92.4357V38.5632H93.2165V39.5136C93.488 39.2081 93.8275 38.9366 94.2009 38.6989C94.5743 38.4953 94.9817 38.3595 95.423 38.3934C95.8303 38.3934 96.2037 38.4613 96.5771 38.5971C96.9505 38.7668 97.2561 39.0045 97.4937 39.3439C97.6634 39.5815 97.7653 39.8192 97.7992 40.0907C97.8332 40.3623 97.8332 40.6339 97.8332 40.9054V45.3185H97.0524V40.9054C97.0863 40.4302 96.9506 39.921 96.645 39.5476C96.2716 39.2081 95.7964 39.0384 95.2872 39.1063C95.0496 39.1063 94.8119 39.1402 94.6083 39.2081C94.4046 39.276 94.2349 39.3779 94.0651 39.5136C93.8954 39.6155 93.7596 39.7852 93.6578 39.921C93.5559 40.0568 93.4541 40.2265 93.3862 40.4302C93.3183 40.6339 93.2504 40.8376 93.2504 41.0752C93.2165 41.2789 93.2165 41.5165 93.2165 41.7202V45.3185Z" fill="#161515"/>
<path d="M104.928 35.915H105.709V45.3182H104.928V44.13H104.894C104.792 44.3677 104.622 44.5374 104.453 44.7411C104.283 44.9108 104.079 45.0466 103.876 45.1484C103.672 45.2503 103.434 45.3521 103.231 45.42C102.993 45.4879 102.789 45.5218 102.552 45.5218C102.076 45.5218 101.601 45.4539 101.16 45.2503C100.786 45.0805 100.481 44.809 100.209 44.5035C99.9378 44.164 99.7681 43.7906 99.6663 43.3832C99.5644 42.9419 99.4965 42.4667 99.4965 41.9914C99.4965 41.5162 99.5644 41.0749 99.6663 40.6336C99.7681 40.2262 99.9718 39.8189 100.209 39.4794C100.447 39.1399 100.786 38.8684 101.16 38.6986C101.567 38.495 102.042 38.3931 102.484 38.3931C102.959 38.3931 103.434 38.495 103.876 38.6986C104.317 38.9023 104.656 39.2418 104.928 39.6491V35.915ZM104.928 41.9235C104.928 41.5501 104.894 41.1767 104.758 40.8373C104.656 40.4978 104.521 40.1923 104.317 39.9207C104.113 39.6831 103.876 39.4455 103.604 39.3097C103.299 39.1399 102.993 39.072 102.654 39.072C102.28 39.072 101.907 39.1399 101.601 39.3097C101.296 39.4794 101.058 39.6831 100.854 39.9546C100.651 40.2602 100.515 40.5657 100.447 40.9391C100.345 41.3464 100.311 41.7199 100.345 42.1272C100.345 42.5006 100.413 42.908 100.515 43.2474C100.617 43.553 100.786 43.8245 101.024 44.0961C101.228 44.3337 101.465 44.5034 101.737 44.6053C102.042 44.7411 102.348 44.775 102.654 44.775C102.993 44.775 103.332 44.7071 103.638 44.5374C103.91 44.4016 104.181 44.1979 104.351 43.9264C104.555 43.6548 104.69 43.3493 104.792 43.0098C104.86 42.6703 104.928 42.2969 104.928 41.9235Z" fill="#161515"/>
<path d="M107.745 37.0692V35.915H108.594V37.0692H107.745ZM107.779 45.3182V38.5629H108.56V45.3182H107.779Z" fill="#161515"/>
<path d="M111.378 45.3185H110.597V38.5632H111.378V39.5136C111.683 39.2081 111.989 38.9366 112.362 38.6989C112.736 38.4953 113.143 38.3595 113.584 38.3934C113.992 38.3934 114.365 38.4613 114.738 38.5971C115.112 38.7668 115.417 39.0045 115.655 39.3439C115.825 39.5815 115.927 39.8192 115.96 40.0907C115.994 40.3623 115.994 40.6339 115.994 40.9054V45.3185H115.214V40.9054C115.248 40.3963 115.112 39.921 114.806 39.5476C114.433 39.2081 113.958 39.0384 113.448 39.1063C113.211 39.1063 112.973 39.1402 112.77 39.2081C112.566 39.276 112.396 39.3779 112.226 39.5136C112.057 39.6155 111.921 39.7852 111.819 39.921C111.717 40.0568 111.615 40.2265 111.547 40.4302C111.48 40.6339 111.412 40.8376 111.412 41.0752C111.412 41.2789 111.378 41.4825 111.378 41.7202V45.3185Z" fill="#161515"/>
<path d="M120.951 41.3804C121.086 41.3804 121.29 41.3464 121.494 41.3125C121.663 41.2786 121.833 41.2446 122.003 41.1767C122.139 41.1088 122.207 41.007 122.241 40.8712C122.274 40.7354 122.274 40.5996 122.274 40.4638C122.274 40.0904 122.139 39.751 121.901 39.4794C121.528 39.1739 121.052 39.0381 120.611 39.106C120.373 39.106 120.102 39.1399 119.864 39.1739C119.661 39.2078 119.457 39.3097 119.253 39.4115C119.084 39.5473 118.948 39.6831 118.846 39.8868C118.71 40.1244 118.642 40.362 118.642 40.6336H117.827C117.827 40.2941 117.929 39.9207 118.099 39.6152C118.235 39.3436 118.439 39.106 118.71 38.9363C118.982 38.7665 119.253 38.6307 119.559 38.5289C119.898 38.461 120.238 38.3931 120.611 38.3931C120.951 38.3931 121.256 38.4271 121.562 38.495C121.833 38.5629 122.105 38.6647 122.342 38.8344C122.58 39.0042 122.75 39.2418 122.852 39.4794C122.987 39.7849 123.055 40.1244 123.055 40.4638V44.13C123.055 44.4356 123.123 44.6392 123.225 44.7071C123.327 44.775 123.564 44.775 123.904 44.6392V45.2503L123.632 45.3182C123.53 45.3521 123.395 45.386 123.293 45.386C123.191 45.386 123.055 45.3861 122.953 45.3521C122.852 45.3521 122.716 45.2842 122.648 45.2163C122.58 45.1484 122.512 45.0805 122.444 44.9787C122.41 44.8769 122.376 44.775 122.342 44.6732C122.308 44.5713 122.308 44.4356 122.308 44.3337C122.003 44.6732 121.596 44.9787 121.154 45.1824C120.713 45.3861 120.238 45.4879 119.762 45.4879C119.457 45.4879 119.151 45.4539 118.88 45.3521C118.608 45.2842 118.371 45.1484 118.167 44.9787C117.963 44.809 117.794 44.6053 117.658 44.3677C117.522 44.0961 117.454 43.8245 117.488 43.519C117.488 42.3648 118.269 41.6859 119.864 41.4822L120.951 41.3804ZM122.274 41.7538C121.935 41.8896 121.596 41.9914 121.256 42.0254C120.917 42.0593 120.577 42.0933 120.238 42.1272C119.729 42.1272 119.253 42.263 118.846 42.5346C118.506 42.7722 118.303 43.1456 118.337 43.553C118.337 43.7566 118.371 43.9264 118.472 44.0961C118.54 44.2319 118.676 44.3677 118.812 44.4695C118.948 44.5713 119.117 44.6392 119.287 44.7071C119.457 44.7411 119.661 44.775 119.83 44.775C120.136 44.775 120.441 44.7411 120.747 44.6392C121.018 44.5713 121.29 44.4356 121.528 44.2658C121.765 44.0961 121.935 43.8924 122.071 43.6548C122.207 43.3832 122.274 43.0777 122.274 42.7722V41.7538Z" fill="#161515"/>
<path d="M124.379 38.563H125.228L127.434 44.3678L129.641 38.563H130.489L127.876 45.3183H126.993L124.379 38.563Z" fill="#161515"/>
<path d="M131.712 37.0692V35.915H132.56V37.0692H131.712ZM131.745 45.3182V38.5629H132.526V45.3182H131.745Z" fill="#161515"/>
<path d="M137.652 41.3804C137.788 41.3804 137.992 41.3464 138.195 41.3125C138.365 41.2786 138.535 41.2446 138.704 41.1767C138.84 41.1088 138.908 41.007 138.942 40.8712C138.976 40.7354 138.976 40.5996 138.976 40.4638C138.976 40.0904 138.84 39.751 138.603 39.4794C138.229 39.1739 137.754 39.0381 137.313 39.106C137.075 39.106 136.803 39.1399 136.566 39.1739C136.362 39.2078 136.158 39.3097 135.955 39.4115C135.785 39.5473 135.649 39.6831 135.547 39.8868C135.446 40.1244 135.344 40.362 135.344 40.6336H134.529C134.529 40.2941 134.631 39.9207 134.801 39.6152C134.936 39.3436 135.14 39.106 135.412 38.9363C135.683 38.7665 135.955 38.6307 136.26 38.5289C136.6 38.461 136.939 38.3931 137.313 38.3931C137.652 38.3931 137.958 38.4271 138.263 38.495C138.535 38.5629 138.806 38.6647 139.044 38.8344C139.282 39.0042 139.451 39.2418 139.553 39.4794C139.689 39.7849 139.757 40.1244 139.757 40.4638V44.13C139.757 44.4356 139.825 44.6392 139.927 44.7071C140.028 44.775 140.266 44.775 140.572 44.6392V45.2503L140.3 45.3182C140.198 45.3521 140.062 45.386 139.96 45.386C139.859 45.386 139.723 45.3861 139.621 45.3521C139.519 45.3521 139.383 45.2842 139.315 45.2163C139.248 45.1484 139.18 45.0805 139.112 44.9787C139.078 44.8769 139.044 44.775 139.01 44.6732C138.976 44.5713 138.976 44.4356 138.976 44.3337C138.671 44.6732 138.263 44.9787 137.822 45.1824C137.381 45.3861 136.905 45.4879 136.43 45.4879C136.125 45.4879 135.853 45.4539 135.581 45.3521C135.31 45.2842 135.072 45.1484 134.869 44.9787C134.665 44.809 134.495 44.6053 134.359 44.3677C134.224 44.0961 134.156 43.8245 134.19 43.519C134.19 42.3648 134.97 41.6859 136.566 41.4822L137.652 41.3804ZM138.976 41.7538C138.637 41.8896 138.297 41.9914 137.958 42.0254C137.618 42.0593 137.279 42.0933 136.939 42.1272C136.43 42.1272 135.955 42.263 135.547 42.5346C135.208 42.7722 135.038 43.1456 135.038 43.553C135.038 43.9264 135.208 44.2658 135.48 44.4695C135.615 44.5713 135.785 44.6392 135.955 44.7071C136.125 44.7411 136.328 44.775 136.498 44.775C136.803 44.775 137.109 44.7411 137.414 44.6392C137.686 44.5713 137.958 44.4356 138.195 44.2658C138.433 44.0961 138.603 43.8924 138.738 43.6548C138.874 43.3832 138.942 43.0777 138.942 42.7722L138.976 41.7538Z" fill="#161515"/>
</g>
</g>
<defs>
<clipPath id="clip0_3001_10198">
<rect width="143" height="48" fill="white"/>
</clipPath>
</defs>
</svg>
