<svg width="181" height="151" viewBox="0 0 181 151" fill="none" xmlns="http://www.w3.org/2000/svg">
<g style="mix-blend-mode:multiply" opacity="0.3">
<path d="M90.0775 150.991C128.123 150.991 158.965 143.605 158.965 134.493C158.965 125.381 128.123 117.994 90.0775 117.994C52.0322 117.994 21.1904 125.381 21.1904 134.493C21.1904 143.605 52.0322 150.991 90.0775 150.991Z" fill="#FFE0E2"/>
</g>
<path d="M40.727 85.4752C40.7633 83.857 40.6361 82.067 39.9001 80.5934C39.2458 79.6442 38.4916 78.8125 37.2649 78.2249C36.9832 78.0892 36.6924 77.9808 36.3926 77.8994C35.811 77.8994 35.2295 77.8361 34.6752 78.0169C33.7846 78.3153 33.0759 79.1198 32.8487 80.0148C32.8124 80.1504 32.7942 80.286 32.7669 80.4216C32.6306 82.6636 33.8573 85.4571 33.7937 87.464C33.7301 89.2178 32.6488 91.9571 34.8569 92.7978C36.2381 93.3221 37.2831 92.7255 38.2099 91.9028C40.0182 90.2213 40.6543 87.8708 40.7088 85.4752H40.727Z" fill="#FFE0E2"/>
<path d="M33.2395 105.057C31.5766 104.994 29.8955 104.786 28.2417 104.451C26.8242 106.684 25.4248 108.917 23.9528 111.114C23.353 112.009 22.6534 112.913 22.2081 113.907C21.5629 115.363 22.0991 116.656 22.9169 117.912C25.3067 121.564 29.214 124.584 32.9124 126.835C36.6652 129.122 40.8179 130.758 45.2068 131.301C46.0973 131.409 47.3967 131.671 48.2781 131.464C48.887 129.665 49.5594 127.947 49.9865 126.067C50.3499 124.475 51.3495 121.483 50.2954 119.91C43.0532 117.424 35.9837 112.172 33.2395 105.057Z" fill="#FFE0E2"/>
<path d="M39.5546 102.715C43.7891 101.521 47.4874 98.7461 49.7591 94.9853C54.4388 87.2469 51.8854 78.6224 47.6419 71.3811C46.0244 69.094 44.1071 67.0237 41.9354 65.2518C38.3461 62.3137 33.9299 59.8186 29.5501 58.2727C25.9608 57.0071 22.0353 56.6455 18.5732 58.11C20.7722 57.667 23.0712 57.9021 25.252 58.553C28.5323 59.5203 30.5405 61.3012 32.685 63.8506C32.7123 63.8777 32.6668 63.9229 32.6396 63.8958C30.6768 62.0064 27.5055 60.5599 24.9067 59.7734C22.8894 59.1587 20.8086 58.9779 18.7186 58.9327C23.9253 60.1441 28.7686 63.5432 32.1398 67.6204C32.158 67.6475 32.1398 67.6927 32.1035 67.6656C28.0962 64.6913 23.9617 61.6086 19.0003 60.4786C14.5205 59.457 9.33194 60.1079 5.88804 63.3534C-0.718066 69.564 1.45368 81.2351 5.8426 88.0062C10.1952 94.7141 17.6736 99.1529 25.1793 101.54C29.7954 103.013 34.7841 104.071 39.5546 102.724V102.715ZM20.8722 79.0744C20.6359 81.443 19.9362 83.8658 17.9917 85.4026C16.4287 86.6321 14.2661 87.0751 12.476 86.0535C10.3769 84.8602 9.81353 82.5911 9.67723 80.3672C9.51367 77.6732 8.38691 74.8888 8.89577 72.1857C9.25924 70.2511 10.4678 68.4702 12.267 67.6565C12.9667 67.2949 13.7572 67.096 14.5659 67.1051C17.083 67.1413 19.1457 69.1482 20.1452 71.2998C21.2629 73.7226 21.1357 76.4799 20.8813 79.0744H20.8722ZM30.8404 93.6203C28.914 92.0201 29.0503 89.8324 29.1957 87.5542C29.3502 85.0772 28.3415 82.3741 29.3592 79.9875C30.0953 78.2608 31.7582 77.0675 33.5573 76.6516C34.1298 76.516 34.7295 76.4889 35.3384 76.5341C36.5378 76.4708 37.7464 76.7059 38.8277 77.2483C41.1357 78.4145 41.9263 80.5661 42.0081 83.007C42.1625 87.4457 41.1085 93.105 36.2289 94.6689C34.3842 95.2566 32.3306 94.8588 30.8404 93.6203Z" fill="#FFE0E2"/>
<path d="M118.628 120.578C117.002 121.79 111.568 122.92 106.897 122.92C105.607 127.006 102.681 133.225 107.479 135.196C109.741 136.127 112.349 136.534 114.785 136.525C116.702 136.516 118.864 136.353 120.155 134.844C119.964 133.867 119.855 132.864 119.737 131.869C119.364 128.561 118.901 123.896 118.628 120.578Z" fill="#FFE0E2"/>
<path d="M29.2139 50.4894C28.378 50.9053 27.8509 52.5416 27.9418 53.4275C28.069 54.6389 29.1503 54.5485 29.8046 53.762C30.159 53.3371 30.4225 52.8037 30.6133 52.2884C30.6315 52.2432 30.6497 52.198 30.6587 52.1528C30.795 51.0138 30.5679 49.8204 29.2049 50.4985L29.2139 50.4894Z" fill="#FFE0E2"/>
<path d="M55.1296 58.6353C54.757 58.5268 54.4299 58.5991 54.1573 58.7709C53.7393 59.2048 53.4122 59.7291 53.2577 60.2987C53.1305 60.7597 53.085 61.266 53.1668 61.7361C53.3213 62.6763 54.2663 62.848 54.8933 62.1881C55.6112 61.4287 56.6834 59.0782 55.1205 58.6262L55.1296 58.6353Z" fill="#FFE0E2"/>
<path d="M177.083 35.1569C177.174 34.7229 177.156 34.28 176.984 33.8551C176.493 33.5929 175.975 33.3398 175.684 33.5929C176.257 34.0178 176.802 34.5331 177.083 35.1569Z" fill="#FFE0E2"/>
<path d="M29.0413 35.0585C31.5947 30.6107 34.7932 26.4702 38.3825 22.7456C35.3839 20.7567 32.0763 18.8583 28.6051 17.9C24.2071 16.6796 21.7536 20.3499 19.7182 23.6406C17.6555 26.9674 15.8745 30.457 14.3297 34.046C13.5392 35.8721 12.7305 37.4903 11.5855 38.8825C15.2293 37.9604 18.8459 36.4688 21.5083 33.7657C21.5901 33.6843 21.7536 33.7928 21.681 33.8923C20.1816 35.9715 18.1462 38.2316 15.7745 39.3165C14.7205 39.8046 13.5846 40.1753 12.4397 40.3922C12.0035 40.564 11.5673 40.7358 11.1221 40.8985C9.91354 41.3505 8.07801 41.5313 7.79632 42.9235C7.72363 43.2671 7.7418 43.5473 7.83267 43.7733C9.04121 45.2921 11.4401 44.5237 12.9667 43.9451C15.72 42.8874 18.1825 41.2149 20.3634 39.2532C22.5442 37.2914 24.5524 34.9952 26.1517 32.5362C26.9786 31.2616 27.7146 29.9417 28.387 28.5856C28.9777 27.3923 29.4229 26.1086 30.3316 25.1142C30.3861 25.0599 30.4951 25.1051 30.4861 25.1774C30.4043 27.0578 29.2412 28.9201 28.387 30.5474C27.9781 31.3158 27.551 32.0752 27.1149 32.8255C27.7055 33.1691 28.1417 33.7928 28.5324 34.3353C28.696 34.5613 28.8777 34.7963 29.0413 35.0404V35.0585Z" fill="#FFE0E2"/>
<path d="M16.3106 69.2309C16.038 69.0501 15.7654 68.9145 15.4746 68.7969C14.9385 68.6432 14.3933 68.598 13.8572 68.6704C10.6496 70.3428 12.7123 74.872 13.5573 77.4485C14.0208 78.8407 14.0753 80.1154 14.2479 81.5528C14.3933 82.7732 14.9203 84.4005 16.5651 84.0931C16.9921 84.0117 17.401 83.7586 17.7827 83.4784C18.2189 82.9631 18.5732 82.3845 18.8004 81.7969C19.6001 79.7086 19.6182 77.2315 19.3184 75.0438C19.0185 72.8289 18.2734 70.5146 16.3015 69.2218L16.3106 69.2309Z" fill="#FFE0E2"/>
<path d="M32.1946 89.8155C32.3581 88.0798 32.5035 86.6334 32.1673 84.8976C31.8947 83.4964 31.5676 82.0499 31.7493 80.6216C31.8674 79.6904 32.2309 78.7954 32.8306 78.1445C32.24 78.4067 31.6948 78.7773 31.2404 79.2565C29.514 81.1007 30.2863 83.632 30.4681 85.8559C30.6498 88.0708 29.6957 90.8281 31.6766 92.4824C32.1855 92.9073 32.7489 93.1785 33.3304 93.3322C32.4126 92.5276 32.0764 91.1716 32.2036 89.8246L32.1946 89.8155Z" fill="#FFE0E2"/>
<path d="M12.5851 78.8409C12.0853 76.4724 10.7768 74.1942 11.1312 71.6991C11.2493 70.8403 11.5674 70.0357 12.0671 69.3848C11.5492 69.7645 11.1039 70.2798 10.7677 70.9216C9.53193 73.2902 10.5496 75.7943 10.904 78.2262C11.2039 80.3326 10.8313 82.8186 12.6214 84.3736C13.3666 85.0154 14.1571 85.2324 14.9295 85.151C14.8568 85.1239 14.7841 85.0878 14.7114 85.0516C12.5033 83.8402 13.0122 80.8569 12.5851 78.8319V78.8409Z" fill="#FFE0E2"/>
<path d="M170.068 38.9353C166.034 36.4583 161.109 35.8887 156.511 36.7656C157.211 38.4652 157.756 39.9478 158.265 41.6022C158.474 42.2802 159.155 42.5785 159.864 42.5153C163.671 42.1808 167.67 44.1425 169.841 46.936C170.995 48.4276 171.922 50.3622 171.386 52.2788C171.05 53.4811 169.896 54.8191 168.542 54.2134C168.433 54.1682 168.506 54.0236 168.596 54.0145C169.887 53.897 170.841 53.0653 170.459 51.7092C170.05 50.2628 169.305 47.6592 167.506 47.4151C166.661 47.2976 165.652 47.7406 165.216 48.4819C163.299 51.7273 165.789 56.6091 169.123 57.8024C171.259 58.5618 173.494 57.9199 175.139 56.4192C177.102 54.6293 177.674 51.9895 177.383 49.4401C176.893 45.1279 173.703 41.1683 170.078 38.9353H170.068Z" fill="#FFE0E2"/>
<path d="M178.128 34.7227C178.328 35.6719 178.192 36.6573 177.574 37.5161C176.684 38.7365 175.148 39.3061 173.658 39.2699C175.093 40.5627 176.302 42.0724 177.192 43.772C180.509 42.0815 180.218 37.3805 178.128 34.7317V34.7227Z" fill="#FFE0E2"/>
<path d="M140.064 16.779C128.251 6.23804 111.241 1.97102 95.693 1.82638C78.9642 1.66365 61.8356 6.32844 48.378 16.4084C35.4748 26.0815 26.0245 40.1753 23.6892 56.1947C30.2408 56.2399 37.2467 60.2538 41.9991 63.9151C42.1536 64.0417 42.3172 64.1592 42.4716 64.2858C43.2804 64.8915 44.0346 65.6056 44.7615 66.3108C45.4884 67.0159 46.2154 67.7391 46.8878 68.4985C48.687 70.5326 50.0955 72.8559 51.2949 75.2878C52.7397 78.1988 53.7483 81.2905 54.021 84.5812C54.448 89.7523 53.2758 94.9143 50.1045 99.0276C47.1059 102.915 45.1068 104.027 38.3008 105.735C37.0468 106.052 35.5475 106.531 36.3562 107.544C38.1645 109.822 40.1091 111.964 42.4625 113.745C45.7247 116.213 49.4412 117.958 53.4212 118.934C54.2027 116.629 54.9842 114.324 55.8292 112.046C55.8928 111.865 56.1654 111.946 56.1291 112.127C55.593 114.685 54.9932 117.226 54.3844 119.766C54.3844 119.947 54.3481 120.137 54.2572 120.299C54.0846 121.032 53.9028 121.773 53.7302 122.505C52.9487 125.787 51.9673 129.059 51.7856 132.45C51.6311 135.37 52.1672 138.109 54.2572 140.278C56.1291 142.222 58.7915 143.443 61.2177 144.554C66.8424 147.122 72.9033 148.216 78.9188 146.335C81.7175 145.459 84.389 144.012 85.4431 141.119C86.2882 138.796 85.8975 136.039 85.8066 133.625C85.5612 127.613 86.0428 121.574 85.4613 115.571C85.3886 114.848 86.5335 114.731 86.7062 115.409C86.9879 116.539 87.2332 117.669 87.4513 118.817C88.3236 117.623 88.7144 116.204 89.1505 114.794C89.2232 114.568 89.5322 114.622 89.5413 114.848C89.6776 116.801 88.8052 118.609 87.9511 120.299C87.8965 120.408 87.8239 120.489 87.7421 120.543C87.7784 120.788 87.8239 121.041 87.8511 121.285C90.5953 121.05 93.4758 121.384 96.2201 121.194C99.6458 120.968 102.99 120.308 106.334 119.54C110.432 118.6 114.43 117.217 118.301 115.526C118.21 114.233 118.119 112.932 118.028 111.639C116.502 111.133 115.302 109.858 114.603 108.457C114.439 108.131 114.839 107.815 115.112 108.068C115.948 108.836 116.893 109.343 117.901 109.777C117.828 108.665 117.756 107.562 117.674 106.45C117.638 105.943 118.383 105.862 118.465 106.359C119.818 114.523 121.227 122.695 122.226 130.913C122.608 134.077 122.781 137.72 126.17 139.13C128.76 140.206 131.931 140.016 134.657 139.718C141.136 139.022 146.924 136.31 152.149 132.549C155.057 130.452 157.756 127.685 156.52 123.879C155.375 120.354 154.039 116.864 152.831 113.366C150.377 106.287 148.006 99.1903 145.725 92.0485C145.325 90.7919 147.233 90.3128 147.688 91.5061C147.869 91.9943 148.678 93.7481 148.86 93.5582C159.246 82.1313 158.91 60.2086 158.201 53.2656C156.802 39.5515 150.496 26.0815 140.073 16.77L140.064 16.779ZM27.4057 55.146C26.4516 54.3505 26.6606 52.895 26.9241 51.8373C27.1967 50.7253 27.7783 49.5682 28.9414 49.1794C29.5956 48.9625 30.3135 49.0077 30.8587 49.3602C31.4857 49.7128 31.8582 50.4631 31.9128 51.1773C32.04 53.112 29.6956 57.0535 27.4057 55.146ZM52.767 63.3998C52.14 62.8303 51.9855 61.9082 52.0946 61.0493C52.1309 59.8651 52.6488 58.5271 53.712 57.9304C54.757 57.3338 56.0655 57.614 56.6198 58.7169C57.5648 60.5973 55.1205 65.5424 52.767 63.3998ZM98.3282 44.8401C98.1646 49.1975 97.9647 53.5549 97.783 57.9123C97.5558 63.3275 98.6462 74.5826 90.877 75.5771C83.3895 76.5353 80.1819 67.0973 78.1282 61.7002C77.8556 60.986 77.6012 60.2628 77.3559 59.5396C77.1559 59.0785 76.9924 58.6085 76.847 58.1293C76.8106 58.1112 76.7834 58.0841 76.7652 58.048C75.9383 56.493 75.7293 54.4951 75.3204 52.7865C74.9024 51.0327 74.4753 49.2789 74.0664 47.5251C73.8574 46.6301 73.6939 45.726 73.4849 44.831C73.4031 44.4875 73.3304 44.1349 73.2032 43.8005C72.8761 42.9778 71.5766 42.6433 70.7316 42.797C69.3867 43.0411 68.5689 44.8762 67.7875 45.952C67.7057 46.1057 67.633 46.2685 67.5512 46.4312C67.4876 46.5668 67.2968 46.4673 67.324 46.3408C67.3967 46.0244 67.5149 45.6537 67.6602 45.274C67.8056 44.7497 68.0601 44.2253 68.3963 43.7372C69.4594 41.893 71.1677 40.2838 73.1759 41.2511C74.5299 41.902 74.6026 43.6287 74.8388 44.9214C74.8843 45.1655 74.9297 45.4006 74.9842 45.6447C75.0569 45.9792 75.1205 46.3137 75.1841 46.6481C75.5021 48.1669 75.8475 49.6766 76.2382 51.1683C77.2105 54.911 78.4917 58.5633 79.882 62.1613C81.2087 65.5966 82.5989 69.8184 85.3977 72.3859C88.4872 75.2245 92.9488 74.9443 94.9933 71.1112C96.8561 67.6216 96.4291 63.0382 96.5744 59.2141C96.7289 55.0737 96.8834 50.9332 97.047 46.7928C97.1742 43.4298 97.7921 39.0905 95.3296 36.3693C92.7307 33.4945 88.4599 33.9375 85.0433 34.5794C83.8257 34.8054 82.608 35.0856 81.3904 35.3116C82.1991 35.5105 83.0078 35.7365 83.8166 35.9264C85.4249 36.306 86.9697 36.3422 88.6053 36.4507C88.8416 36.4688 88.8688 36.7581 88.6598 36.8394C86.5608 37.644 84.0074 37.0383 81.872 36.6586C79.1005 36.1614 76.4472 35.4924 73.6848 36.4326C68.5417 38.1774 65.225 43.4388 62.9169 48.0403L62.8897 48.0223C64.9887 43.0772 67.2241 37.9152 72.5217 35.6099C74.1936 34.8867 75.902 34.6336 77.6557 34.715C78.7643 34.6065 79.882 34.489 80.9724 34.2449C83.1441 33.7567 85.2432 32.9792 87.4604 32.7171C90.7316 32.3283 94.4936 32.8979 96.5563 35.7184C98.4554 38.313 98.4281 41.7664 98.3191 44.831L98.3282 44.8401ZM120.709 12.7923C105.398 11.1198 89.7684 12.5843 74.8933 16.5078C74.3027 16.779 73.6212 17.1135 73.0215 17.0141C72.8397 17.0593 72.6489 16.9689 72.5489 16.8242C72.4944 16.7881 72.4399 16.7338 72.3854 16.6886C71.931 16.2366 71.6403 15.4591 71.4404 14.6907C71.2132 14.1754 71.0042 13.6511 70.7952 13.1177C70.7043 12.9911 70.7043 12.8013 70.8679 12.7199C79.2368 8.82356 89.0597 7.23247 98.2282 6.78046C103.126 6.53637 108.051 6.70813 112.922 7.28671C114.666 7.49464 116.829 7.50368 118.455 8.23594C118.728 8.07322 119.11 8.08226 119.291 8.43483C119.419 8.67892 119.546 8.91397 119.673 9.15805C120.236 9.818 120.6 10.6678 120.909 11.4814C121 11.6532 121.091 11.8249 121.182 11.9967C121.354 12.3222 121.145 12.8555 120.709 12.8103V12.7923Z" fill="#FFE0E2"/>
<path d="M117.747 9.05853C116.947 8.76924 116.002 8.72404 115.166 8.60651C112.931 8.27202 110.686 8.02793 108.442 7.87425C104.344 7.594 100.227 7.594 96.1383 7.87425C91.7857 8.18162 87.4604 8.82348 83.1987 9.75463C79.2914 10.6135 75.5204 11.8701 71.6948 13.0272C72.031 13.6781 72.3854 14.3833 72.8307 14.9438C73.5304 15.8207 73.9847 15.4229 74.9297 15.0974C76.5199 14.546 78.1465 14.0759 79.7821 13.6872C82.7171 12.982 85.7067 12.4486 88.7053 12.078C91.9857 11.6712 95.2842 11.4542 98.5918 11.3276C99.555 11.2915 100.509 11.2644 101.472 11.2372C107.56 10.9389 113.649 11.0926 119.728 11.6169C119.31 10.8937 118.892 10.1705 118.465 9.44726C118.256 9.28453 118.019 9.14893 117.747 9.05853Z" fill="#FFE0E2"/>
<g style="mix-blend-mode:multiply" opacity="0.7">
<path d="M40.727 85.4752C40.7633 83.857 40.6361 82.067 39.9001 80.5934C39.2458 79.6442 38.4916 78.8125 37.2649 78.2249C36.9832 78.0892 36.6924 77.9808 36.3926 77.8994C35.811 77.8994 35.2295 77.8361 34.6752 78.0169C33.7846 78.3153 33.0759 79.1198 32.8487 80.0148C32.8124 80.1504 32.7942 80.286 32.7669 80.4216C32.6306 82.6636 33.8573 85.4571 33.7937 87.464C33.7301 89.2178 32.6488 91.9571 34.8569 92.7978C36.2381 93.3221 37.2831 92.7255 38.2099 91.9028C40.0182 90.2213 40.6543 87.8708 40.7088 85.4752H40.727Z" fill="#FFE0E2"/>
</g>
<g style="mix-blend-mode:multiply">
<path d="M33.2395 105.057C31.5766 104.994 29.8955 104.786 28.2417 104.451C26.8242 106.684 25.4248 108.917 23.9528 111.114C23.353 112.009 22.6534 112.913 22.2081 113.907C21.5629 115.363 22.0991 116.656 22.9169 117.912C25.3067 121.564 29.214 124.584 32.9124 126.835C36.6652 129.122 40.8179 130.758 45.2068 131.301C46.0973 131.409 47.3967 131.671 48.2781 131.464C48.887 129.665 49.5594 127.947 49.9865 126.067C50.3499 124.475 51.3495 121.483 50.2954 119.91C43.0532 117.424 35.9837 112.172 33.2395 105.057Z" fill="#FFE0E2"/>
</g>
<g style="mix-blend-mode:multiply">
<path d="M47.642 71.3816C46.0246 69.0944 44.1073 67.0242 41.9355 65.2523C38.3462 62.3142 33.93 59.8191 29.5502 58.2732C26.0427 57.0347 22.2171 56.664 18.8187 58.011C18.8732 58.011 18.9368 58.0291 18.9913 58.0381C21.0631 57.7037 23.2076 57.9477 25.2521 58.5444C28.5325 59.5117 30.5407 61.2927 32.6851 63.842C32.7124 63.8691 32.667 63.9143 32.6397 63.8872C30.9496 62.26 28.3689 60.9672 26.0336 60.1355C30.2135 61.9978 33.9755 64.7641 37.2104 67.9644C40.2454 70.9748 42.8351 74.4824 44.3708 78.4963C45.7792 82.1757 46.0882 86.4608 43.871 89.9052C41.3358 93.8467 36.5561 95.9893 31.9582 96.143C27.7419 96.2876 23.7165 94.8321 20.1635 92.6534C17.0195 90.7278 14.1481 88.3141 11.6219 85.6382C8.95951 82.8266 6.59694 79.6716 4.89771 76.2001C3.7346 73.8406 2.85318 71.2822 2.53514 68.6605C0.454261 74.9073 2.50788 82.8537 5.83365 87.9886C10.1862 94.6965 17.6647 99.1353 25.1704 101.522C29.7865 102.996 34.7751 104.053 39.5457 102.706C43.7801 101.513 47.4785 98.7375 49.7502 94.9768C54.4299 87.2383 51.8765 78.6138 47.6329 71.3726L47.642 71.3816Z" fill="#FFE0E2"/>
</g>
<g style="mix-blend-mode:multiply">
<path d="M118.628 120.578C117.002 121.79 111.568 122.92 106.897 122.92C105.607 127.006 102.681 133.225 107.479 135.196C109.741 136.127 112.349 136.534 114.785 136.525C116.702 136.516 118.864 136.353 120.155 134.844C119.964 133.867 119.855 132.864 119.737 131.869C119.364 128.561 118.901 123.896 118.628 120.578Z" fill="#FFE0E2"/>
</g>
<g style="mix-blend-mode:multiply">
<path d="M33.2395 105.057C31.5766 104.994 29.8955 104.786 28.2417 104.451C26.8242 106.684 25.4248 108.917 23.9528 111.114C23.353 112.009 22.6534 112.913 22.2081 113.907C21.5629 115.363 22.0991 116.656 22.9169 117.912C25.3067 121.564 29.214 124.584 32.9124 126.835C36.6652 129.122 40.8179 130.758 45.2068 131.301C46.0973 131.409 47.3967 131.671 48.2781 131.464C48.887 129.665 49.5594 127.947 49.9865 126.067C50.3499 124.475 51.3495 121.483 50.2954 119.91C43.0532 117.424 35.9837 112.172 33.2395 105.057Z" fill="#FFE0E2"/>
</g>
<g style="mix-blend-mode:multiply">
<path d="M118.628 120.578C117.002 121.79 111.568 122.92 106.897 122.92C105.607 127.006 102.681 133.225 107.479 135.196C109.741 136.127 112.349 136.534 114.785 136.525C116.702 136.516 118.864 136.353 120.155 134.844C119.964 133.867 119.855 132.864 119.737 131.869C119.364 128.561 118.901 123.896 118.628 120.578Z" fill="#FFE0E2"/>
</g>
<g style="mix-blend-mode:multiply">
<path d="M29.2139 50.4894C28.378 50.9053 27.8509 52.5416 27.9418 53.4275C28.069 54.6389 29.1503 54.5485 29.8046 53.762C30.159 53.3371 30.4225 52.8037 30.6133 52.2884C30.6315 52.2432 30.6497 52.198 30.6587 52.1528C30.795 51.0138 30.5679 49.8204 29.2049 50.4985L29.2139 50.4894Z" fill="#FFE0E2"/>
</g>
<g style="mix-blend-mode:multiply">
<path d="M55.1296 58.6353C54.757 58.5268 54.4299 58.5991 54.1573 58.7709C53.7393 59.2048 53.4122 59.7291 53.2577 60.2987C53.1305 60.7597 53.085 61.266 53.1668 61.7361C53.3213 62.6763 54.2663 62.848 54.8933 62.1881C55.6112 61.4287 56.6834 59.0782 55.1205 58.6262L55.1296 58.6353Z" fill="#FFE0E2"/>
</g>
<g style="mix-blend-mode:multiply">
<path d="M177.083 35.1569C177.174 34.7229 177.156 34.28 176.984 33.8551C176.493 33.5929 175.975 33.3398 175.684 33.5929C176.257 34.0178 176.802 34.5331 177.083 35.1569Z" fill="#FFE0E2"/>
</g>
<g style="mix-blend-mode:multiply">
<path d="M29.0413 35.0585C31.5947 30.6107 34.7932 26.4702 38.3825 22.7456C35.3839 20.7567 32.0763 18.8583 28.6051 17.9C24.2071 16.6796 21.7536 20.3499 19.7182 23.6406C17.6555 26.9674 15.8745 30.457 14.3297 34.046C13.5392 35.8721 12.7305 37.4903 11.5855 38.8825C15.2293 37.9604 18.8459 36.4688 21.5083 33.7657C21.5901 33.6843 21.7536 33.7928 21.681 33.8923C20.1816 35.9715 18.1462 38.2316 15.7745 39.3165C14.7205 39.8046 13.5846 40.1753 12.4397 40.3922C12.0035 40.564 11.5673 40.7358 11.1221 40.8985C9.91354 41.3505 8.07801 41.5313 7.79632 42.9235C7.72363 43.2671 7.7418 43.5473 7.83267 43.7733C9.04121 45.2921 11.4401 44.5237 12.9667 43.9451C15.72 42.8874 18.1825 41.2149 20.3634 39.2532C22.5442 37.2914 24.5524 34.9952 26.1517 32.5362C26.9786 31.2616 27.7146 29.9417 28.387 28.5856C28.9777 27.3923 29.4229 26.1086 30.3316 25.1142C30.3861 25.0599 30.4951 25.1051 30.4861 25.1774C30.4043 27.0578 29.2412 28.9201 28.387 30.5474C27.9781 31.3158 27.551 32.0752 27.1149 32.8255C27.7055 33.1691 28.1417 33.7928 28.5324 34.3353C28.696 34.5613 28.8777 34.7963 29.0413 35.0404V35.0585Z" fill="#FFE0E2"/>
</g>
<g style="mix-blend-mode:multiply">
<path d="M30.6134 18.5591C30.5407 18.7941 30.468 19.0292 30.3953 19.2642C28.7779 24.2183 26.0246 28.8921 22.299 32.5715C19.3821 35.4464 15.7928 37.6612 11.8219 38.5924C11.7492 38.6918 11.6765 38.7822 11.6038 38.8817C15.2476 37.9596 18.8642 36.4679 21.5266 33.7649C21.6084 33.6835 21.772 33.792 21.6993 33.8914C20.1999 35.9707 18.1645 38.2308 15.7928 39.3156C14.7388 39.8038 13.6029 40.1744 12.458 40.3914C12.0218 40.5632 11.5857 40.7349 11.1404 40.8977C9.93186 41.3497 8.09632 41.5305 7.81463 42.9227C7.74194 43.2662 7.76011 43.5465 7.85098 43.7725C9.05952 45.2912 11.4584 44.5228 12.985 43.9442C15.7383 42.8865 18.2008 41.2141 20.3817 39.2523C22.5625 37.2906 24.5707 34.9943 26.17 32.5354C26.9969 31.2607 27.7329 29.9408 28.4053 28.5848C28.996 27.3915 29.4412 26.1077 30.3499 25.1133C30.4044 25.0591 30.5135 25.1043 30.5044 25.1766C30.4226 27.057 29.2595 28.9193 28.4053 30.5465C27.9964 31.3149 27.5693 32.0743 27.1332 32.8247C27.7238 33.1682 28.16 33.792 28.5507 34.3344C28.7143 34.5604 28.896 34.7955 29.0596 35.0395C31.613 30.5917 34.8115 26.4513 38.4008 22.7267C35.9837 21.1265 33.3667 19.5806 30.6316 18.541L30.6134 18.5591Z" fill="#FFE0E2"/>
</g>
<g style="mix-blend-mode:multiply" opacity="0.7">
<path d="M16.3106 69.2309C16.038 69.0501 15.7654 68.9145 15.4746 68.7969C14.9385 68.6432 14.3933 68.598 13.8572 68.6704C10.6496 70.3428 12.7123 74.872 13.5573 77.4485C14.0208 78.8407 14.0753 80.1154 14.2479 81.5528C14.3933 82.7732 14.9203 84.4005 16.5651 84.0931C16.9921 84.0117 17.401 83.7586 17.7827 83.4784C18.2189 82.9631 18.5732 82.3845 18.8004 81.7969C19.6001 79.7086 19.6182 77.2315 19.3184 75.0438C19.0185 72.8289 18.2734 70.5146 16.3015 69.2218L16.3106 69.2309Z" fill="#FFE0E2"/>
</g>
<g style="mix-blend-mode:multiply">
<path d="M32.1946 89.8155C32.3581 88.0798 32.5035 86.6334 32.1673 84.8976C31.8947 83.4964 31.5676 82.0499 31.7493 80.6216C31.8674 79.6904 32.2309 78.7954 32.8306 78.1445C32.24 78.4067 31.6948 78.7773 31.2404 79.2565C29.514 81.1007 30.2863 83.632 30.4681 85.8559C30.6498 88.0708 29.6957 90.8281 31.6766 92.4824C32.1855 92.9073 32.7489 93.1785 33.3304 93.3322C32.4126 92.5276 32.0764 91.1716 32.2036 89.8246L32.1946 89.8155Z" fill="#FFE0E2"/>
</g>
<g style="mix-blend-mode:multiply">
<path d="M12.5851 78.8409C12.0853 76.4724 10.7768 74.1942 11.1312 71.6991C11.2493 70.8403 11.5674 70.0357 12.0671 69.3848C11.5492 69.7645 11.1039 70.2798 10.7677 70.9216C9.53193 73.2902 10.5496 75.7943 10.904 78.2262C11.2039 80.3326 10.8313 82.8186 12.6214 84.3736C13.3666 85.0154 14.1571 85.2324 14.9295 85.151C14.8568 85.1239 14.7841 85.0878 14.7114 85.0516C12.5033 83.8402 13.0122 80.8569 12.5851 78.8319V78.8409Z" fill="#FFE0E2"/>
</g>
<g style="mix-blend-mode:multiply">
<path d="M170.068 38.9353C166.034 36.4583 161.109 35.8887 156.511 36.7656C157.211 38.4652 157.756 39.9478 158.265 41.6022C158.474 42.2802 159.155 42.5785 159.864 42.5153C163.671 42.1808 167.67 44.1425 169.841 46.936C170.995 48.4276 171.922 50.3622 171.386 52.2788C171.05 53.4811 169.896 54.8191 168.542 54.2134C168.433 54.1682 168.506 54.0236 168.596 54.0145C169.887 53.897 170.841 53.0653 170.459 51.7092C170.05 50.2628 169.305 47.6592 167.506 47.4151C166.661 47.2976 165.652 47.7406 165.216 48.4819C163.299 51.7273 165.789 56.6091 169.123 57.8024C171.259 58.5618 173.494 57.9199 175.139 56.4192C177.102 54.6293 177.674 51.9895 177.383 49.4401C176.893 45.1279 173.703 41.1683 170.078 38.9353H170.068Z" fill="#FFE0E2"/>
</g>
<g style="mix-blend-mode:multiply">
<path d="M178.128 34.7227C178.328 35.6719 178.192 36.6573 177.574 37.5161C176.684 38.7365 175.148 39.3061 173.658 39.2699C175.093 40.5627 176.302 42.0724 177.192 43.772C180.509 42.0815 180.218 37.3805 178.128 34.7317V34.7227Z" fill="#FFE0E2"/>
</g>
<g style="mix-blend-mode:multiply">
<path d="M78.1372 61.6993C77.8646 60.9851 77.6102 60.2619 77.3648 59.5387C77.1649 59.0776 77.0014 58.6075 76.856 58.1284C76.8196 58.1103 76.7924 58.0832 76.7742 58.047C75.9473 56.4921 75.7383 54.4942 75.3294 52.7856C74.9114 51.0318 74.4843 49.2779 74.0754 47.5241C73.8664 46.6291 73.7029 45.7251 73.4939 44.8301C73.4121 44.4866 73.3394 44.134 73.2122 43.7995C72.885 42.9769 71.5856 42.6424 70.7406 42.7961C69.9409 42.9407 69.3321 43.6458 68.8051 44.4233C68.8051 44.586 68.7778 44.7488 68.7051 44.8844C68.4779 45.3273 68.1599 45.7793 67.7419 46.0777C67.6874 46.1952 67.6238 46.3127 67.5693 46.4302C67.5057 46.5659 67.3148 46.4664 67.3421 46.3398V46.3037C66.8878 46.5026 66.3607 46.5659 65.8791 46.3941C65.3612 46.2042 64.9614 45.8607 64.6524 45.4087C64.5979 45.3273 64.5434 45.2369 64.4979 45.1556C64.3344 45.4358 64.1708 45.7251 64.0072 46.0054C63.7346 46.7738 63.5529 47.5603 63.5711 48.3468C63.5802 48.9073 63.7256 49.4497 64.0072 49.9379C64.0981 50.0916 64.2072 50.2724 64.2889 50.3628C64.3253 50.408 64.4525 50.5165 64.4888 50.5526C64.507 50.5526 64.6251 50.6069 64.6251 50.6159C64.6797 50.634 64.7342 50.643 64.7796 50.6521C64.8069 50.6521 64.9977 50.6701 65.0431 50.6792C65.1522 50.6792 65.2521 50.6792 65.3612 50.6973C65.6792 50.7153 65.9973 50.7515 66.3062 50.8148C66.6242 50.8781 66.9059 51.0046 67.2149 51.1041C67.333 51.1402 67.4421 51.1674 67.5602 51.1945C67.5874 51.1945 67.6056 51.2035 67.6147 51.2126C67.6147 51.2126 67.6329 51.2126 67.642 51.2126C67.7147 51.2126 67.7964 51.2126 67.8691 51.2126C67.9963 51.1854 68.1417 51.1583 68.2599 51.1583C68.696 51.1583 69.0232 51.3934 69.2503 51.755C69.5229 52.1889 69.6774 52.7042 69.8682 53.1743C70.0409 53.5992 70.2044 54.0241 70.3407 54.4671C70.8587 56.0853 71.2585 57.7397 71.6765 59.3759C72.1944 61.4191 72.7215 63.4531 73.3212 65.4691C73.6393 66.5359 73.9755 67.5936 74.3389 68.6332C74.5207 69.1575 74.7206 69.6909 74.9205 70.2062C75.1204 70.7306 75.3203 71.2097 75.502 71.6255C75.92 72.5838 76.3744 73.524 76.8923 74.4371C77.1468 74.88 77.4103 75.323 77.692 75.7479C77.8283 75.9558 77.9737 76.1638 78.119 76.3627C78.1917 76.4621 78.2644 76.5615 78.3371 76.661C78.3644 76.6971 78.4007 76.7423 78.428 76.7785L78.4462 76.8056L78.4825 76.8418C79.055 77.556 79.682 78.225 80.3907 78.8126C80.4453 78.8578 80.4998 78.8939 80.5452 78.9391L80.5725 78.9572L80.5997 78.9753C80.6815 79.0386 80.7633 79.0928 80.8451 79.1561C81.0177 79.2736 81.1995 79.3912 81.3721 79.4996C81.5629 79.6172 81.7538 79.7256 81.9537 79.8251C82.0536 79.8793 82.1536 79.9245 82.2535 79.9697C82.2899 79.9878 82.3353 80.0059 82.3717 80.024L82.3989 80.0421H82.4171C82.8169 80.2048 83.2349 80.3404 83.6529 80.4398C83.771 80.4669 83.8982 80.4941 84.0164 80.5121C84.0527 80.5121 84.1981 80.5393 84.2526 80.5483C84.4435 80.5754 84.6343 80.5935 84.8342 80.6026C85.9428 80.6658 86.6879 80.5574 87.7147 80.2861C89.0141 79.9426 90.1318 79.2465 90.9133 78.1526C91.513 77.3028 91.9037 76.3446 92.0218 75.3411C91.6675 75.4405 91.2949 75.5309 90.8951 75.5761C83.4076 76.5344 80.1999 67.0964 78.1463 61.6993H78.1372Z" fill="#FFE0E2"/>
</g>
<g style="mix-blend-mode:multiply">
<path d="M152.822 113.374C150.368 106.295 147.997 99.1985 145.716 92.0567C145.316 90.8001 147.224 90.3209 147.678 91.5142C147.86 92.0024 148.669 93.7562 148.851 93.5664C159.237 82.1395 158.901 60.2168 158.192 53.2738C157.938 50.8148 157.529 48.374 156.974 45.9512C156.874 47.1987 156.702 48.4372 156.475 49.6667C155.802 53.319 154.63 56.8357 153.294 60.2981C152.049 63.5255 150.604 66.6896 148.651 69.5463C144.743 75.2598 138.946 79.6082 132.867 82.8175C126.724 86.072 120.073 88.2688 113.376 90.0859C106.833 91.8578 100.264 93.2229 93.4757 93.5574C86.7061 93.8918 79.8092 93.3494 73.2576 91.5685C67.1058 89.896 60.8359 87.1116 56.547 82.2751C52.6487 77.8634 50.3316 72.3307 46.4606 67.91C45.4611 66.771 44.3616 65.7765 43.1985 64.8544C43.7437 65.3155 44.2707 65.8217 44.7796 66.3099C45.5065 67.0151 46.2334 67.7383 46.9059 68.4977C48.7051 70.5317 50.1135 72.8551 51.313 75.2869C52.7578 78.1979 53.7664 81.2897 54.039 84.5803C54.4661 89.7514 53.2939 94.9134 50.1226 99.0267C47.124 102.914 45.1249 104.026 38.3188 105.735C37.0649 106.051 35.5655 106.53 36.3743 107.543C38.1825 109.821 40.1271 111.963 42.4806 113.744C45.7428 116.212 49.4593 117.957 53.4393 118.933C54.2207 116.628 55.0022 114.323 55.8473 112.045C55.9109 111.864 56.1835 111.945 56.1472 112.126C55.611 114.685 55.0113 117.225 54.4025 119.765C54.4025 119.946 54.3661 120.136 54.2753 120.299C54.1026 121.031 53.9209 121.772 53.7482 122.504C52.9668 125.786 51.9854 129.059 51.8037 132.449C51.6492 135.369 52.1853 138.108 54.2753 140.278C56.1472 142.221 58.8096 143.442 61.2358 144.554C66.8605 147.121 72.9214 148.215 78.9369 146.335C81.7356 145.458 84.4071 144.011 85.4612 141.118C86.3062 138.795 85.9155 136.038 85.8246 133.624C85.5793 127.612 86.0609 121.573 85.4793 115.57C85.4067 114.847 86.5516 114.73 86.7242 115.408C87.0059 116.538 87.2513 117.668 87.4694 118.816C88.3417 117.623 88.7324 116.203 89.1686 114.793C89.2413 114.567 89.5502 114.621 89.5593 114.847C89.6956 116.8 88.8233 118.608 87.9691 120.299C87.9146 120.407 87.8419 120.488 87.7601 120.543C87.7965 120.787 87.8419 121.04 87.8692 121.284C90.6134 121.049 93.4939 121.383 96.2381 121.194C99.6638 120.968 103.008 120.308 106.352 119.539C110.45 118.599 114.448 117.216 118.319 115.525C118.228 114.232 118.137 112.931 118.046 111.638C116.52 111.132 115.32 109.857 114.621 108.456C114.457 108.13 114.857 107.814 115.13 108.067C115.966 108.835 116.911 109.342 117.919 109.776C117.847 108.664 117.774 107.561 117.692 106.449C117.656 105.943 118.401 105.861 118.483 106.358C119.837 114.522 121.245 122.694 122.245 130.912C122.626 134.076 122.799 137.719 126.188 139.129C128.778 140.205 131.949 140.015 134.675 139.717C141.154 139.021 146.942 136.309 152.167 132.548C155.075 130.451 157.774 127.684 156.538 123.878C155.393 120.353 154.057 116.863 152.849 113.365L152.822 113.374Z" fill="#FFE0E2"/>
</g>
<g style="mix-blend-mode:multiply">
<path d="M26.7786 56.4561C25.7882 56.2481 24.7341 56.1125 23.7073 56.1758V56.2029C25.0612 56.212 26.4424 56.3928 27.8145 56.7092C27.4692 56.6188 27.133 56.5374 26.7877 56.4651L26.7786 56.4561Z" fill="#FFE0E2"/>
</g>
<g style="mix-blend-mode:multiply">
<path d="M117.747 9.05853C116.947 8.76924 116.002 8.72404 115.166 8.60651C112.931 8.27202 110.686 8.02793 108.442 7.87425C104.344 7.594 100.227 7.594 96.1383 7.87425C91.7857 8.18162 87.4604 8.82348 83.1987 9.75463C79.2914 10.6135 75.5204 11.8701 71.6948 13.0272C72.031 13.6781 72.3854 14.3833 72.8307 14.9438C73.5304 15.8207 73.9847 15.4229 74.9297 15.0974C76.5199 14.546 78.1465 14.0759 79.7821 13.6872C82.7171 12.982 85.7067 12.4486 88.7053 12.078C91.9857 11.6712 95.2842 11.4542 98.5918 11.3276C99.555 11.2915 100.509 11.2644 101.472 11.2372C107.56 10.9389 113.649 11.0926 119.728 11.6169C119.31 10.8937 118.892 10.1705 118.465 9.44726C118.256 9.28453 118.019 9.14893 117.747 9.05853Z" fill="#FFE0E2"/>
</g>
<path d="M87.4694 32.7174C85.2522 32.9795 83.1441 33.757 80.9814 34.2452C79.8819 34.4893 78.7733 34.6068 77.6647 34.7153C75.911 34.6339 74.2027 34.8871 72.5307 35.6103C67.2331 37.9155 64.9977 43.0685 62.8987 48.0226L62.9259 48.0407C65.234 43.4392 68.5507 38.1777 73.6938 36.4329C76.4562 35.4927 79.1095 36.1708 81.881 36.6589C84.0164 37.0386 86.5698 37.6443 88.6689 36.8398C88.8778 36.7584 88.8506 36.4601 88.6143 36.451C86.9787 36.3425 85.4339 36.3154 83.8256 35.9267C83.0078 35.7278 82.2081 35.5108 81.3994 35.3119C82.617 35.0859 83.8347 34.8057 85.0523 34.5797C88.478 33.9378 92.7488 33.5039 95.3386 36.3697C97.8011 39.0908 97.1832 43.4301 97.056 46.7931C96.9015 50.9336 96.747 55.074 96.5835 59.2145C96.4381 63.0476 96.8651 67.631 95.0024 71.1115C92.9578 74.9356 88.4962 75.2158 85.4067 72.3862C82.608 69.8187 81.2177 65.5969 79.891 62.1616C78.5007 58.5545 77.2195 54.9113 76.2472 51.1686C75.8565 49.6679 75.5112 48.1582 75.1931 46.6485C75.1295 46.314 75.0659 45.9795 74.9932 45.645C74.9478 45.4009 74.8933 45.1659 74.8478 44.9218C74.6025 43.6381 74.5389 41.9023 73.1849 41.2514C71.1768 40.2931 69.4775 41.9023 68.4053 43.7375C68.0691 44.2257 67.8146 44.75 67.6693 45.2743C67.5239 45.654 67.4057 46.0156 67.333 46.3411C67.3058 46.4677 67.4966 46.5671 67.5602 46.4315C67.6329 46.2688 67.7147 46.1151 67.7965 45.9524C68.587 44.8675 69.3957 43.0414 70.7406 42.7973C71.5857 42.6436 72.8851 42.9781 73.2122 43.8008C73.3485 44.1353 73.4121 44.4878 73.4939 44.8314C73.7029 45.7264 73.8664 46.6304 74.0754 47.5254C74.4843 49.2792 74.9114 51.033 75.3294 52.7868C75.7383 54.4954 75.9473 56.4933 76.7742 58.0483C76.7924 58.0844 76.8287 58.1116 76.856 58.1296C77.0014 58.6088 77.174 59.0698 77.3649 59.5399C77.6102 60.2632 77.8646 60.9864 78.1372 61.7006C80.1818 67.0976 83.3985 76.5357 90.886 75.5774C98.6552 74.583 97.5648 63.3188 97.792 57.9127C97.9737 53.5553 98.1646 49.1978 98.3372 44.8404C98.4553 41.7758 98.4826 38.3314 96.5744 35.7278C94.5026 32.9072 90.7497 32.3377 87.4785 32.7264L87.4694 32.7174Z" fill="#DA4049"/>
<path d="M120.909 11.4629C120.6 10.6493 120.236 9.79952 119.673 9.13957C119.546 8.89549 119.419 8.66044 119.291 8.41635C119.11 8.06378 118.728 8.05474 118.455 8.21747C116.838 7.4852 114.666 7.47616 112.922 7.26823C108.051 6.68966 103.135 6.51789 98.2282 6.76198C89.0596 7.21399 79.2368 8.80508 70.8678 12.7014C70.6952 12.7828 70.7043 12.9727 70.7951 13.0992C71.0041 13.6236 71.2131 14.1479 71.4403 14.6722C71.6402 15.4407 71.931 16.2181 72.3853 16.6701C72.4398 16.7244 72.4944 16.7696 72.5489 16.8057C72.6488 16.9594 72.8397 17.0408 73.0214 16.9956C73.6211 17.1041 74.3026 16.7605 74.8933 16.4893C89.7684 12.5658 105.389 11.1104 120.709 12.7738C121.145 12.819 121.354 12.2856 121.181 11.9601C121.091 11.7884 121 11.6166 120.909 11.4448V11.4629ZM101.472 11.2369C100.509 11.264 99.5549 11.2912 98.5917 11.3273C95.2932 11.4539 91.9856 11.6709 88.7052 12.0777C85.7066 12.4483 82.717 12.9817 79.782 13.6868C78.1464 14.0846 76.5198 14.5457 74.9296 15.0971C73.9846 15.4226 73.5393 15.8204 72.8306 14.9434C72.3762 14.3739 72.0309 13.6778 71.6947 13.0269C75.5203 11.8788 79.2913 10.6222 83.1986 9.75431C87.4603 8.81412 91.7856 8.1813 96.1382 7.87393C100.236 7.58464 104.344 7.58464 108.442 7.87393C110.695 8.02762 112.94 8.27171 115.166 8.6062C116.002 8.73276 116.947 8.77796 117.747 9.05821C118.019 9.15766 118.255 9.29326 118.464 9.44694C118.892 10.1702 119.31 10.8934 119.728 11.6166C113.639 11.0923 107.551 10.9386 101.472 11.2369Z" fill="#DA4049"/>
<path d="M53.712 57.9199C52.658 58.5256 52.1309 59.8636 52.0946 61.0388C51.9765 61.8886 52.1309 62.8198 52.767 63.3893C55.1296 65.5319 57.5649 60.5778 56.6198 58.7064C56.0655 57.6035 54.757 57.3233 53.712 57.9199ZM54.8933 62.187C54.2663 62.8469 53.3213 62.6751 53.1668 61.7349C53.0851 61.2648 53.1305 60.7586 53.2577 60.2975C53.4122 59.728 53.7393 59.2037 54.1573 58.7697C54.4299 58.598 54.7479 58.5256 55.1296 58.6341C56.6925 59.0771 55.6203 61.4366 54.9024 62.196L54.8933 62.187Z" fill="#DA4049"/>
<path d="M42.0174 82.999C41.9356 80.5671 41.136 78.4065 38.837 77.2403C37.7557 76.6979 36.538 76.4628 35.3477 76.5261C34.7389 76.4719 34.1391 76.508 33.5667 76.6436C31.7584 77.0595 30.0955 78.2619 29.3686 79.9795C28.3508 82.3662 29.3686 85.0602 29.205 87.5462C29.0596 89.8334 28.9233 92.0212 30.8497 93.6123C32.3399 94.8508 34.3936 95.2486 36.2382 94.6609C41.1178 93.097 42.1719 87.4378 42.0174 82.999ZM31.6766 92.4732C29.7048 90.8188 30.6589 88.0615 30.4681 85.8467C30.2863 83.6228 29.5139 81.0915 31.2404 79.2473C31.6948 78.7591 32.24 78.3975 32.8306 78.1353C32.2309 78.7862 31.8674 79.6812 31.7493 80.6123C31.5676 82.0407 31.9038 83.4871 32.1673 84.8884C32.5035 86.6241 32.3581 88.0706 32.1945 89.8063C32.0673 91.1533 32.4035 92.5094 33.3213 93.3139C32.7398 93.1603 32.1764 92.889 31.6675 92.4642L31.6766 92.4732ZM34.8661 92.7896C32.6489 91.9489 33.7393 89.2097 33.8029 87.4558C33.8756 85.4579 32.6489 82.6554 32.7761 80.4134C32.7943 80.2778 32.8215 80.1332 32.8579 80.0066C33.0851 79.1026 33.7938 78.3071 34.6843 78.0087C35.2386 77.8279 35.8202 77.8822 36.4017 77.8912C36.7016 77.9726 36.9924 78.081 37.2741 78.2167C38.5008 78.8043 39.255 79.645 39.9092 80.5852C40.6453 82.0588 40.7725 83.8488 40.7361 85.467C40.6725 87.8626 40.0455 90.2131 38.2373 91.8946C37.3104 92.7173 36.2654 93.3139 34.8842 92.7896H34.8661Z" fill="#DA4049"/>
<path d="M14.566 67.1058C13.7664 67.0967 12.9667 67.2956 12.2671 67.6572C10.4679 68.4708 9.25933 70.2518 8.89586 72.1864C8.387 74.8804 9.51376 77.6739 9.67733 80.3679C9.81363 82.5918 10.3861 84.8609 12.4761 86.0542C14.2662 87.0758 16.4288 86.6328 17.9918 85.4033C19.9363 83.8665 20.636 81.4437 20.8723 79.0751C21.1267 76.4896 21.2539 73.7233 20.1362 71.3005C19.1458 69.1489 17.0831 67.1419 14.5569 67.1058H14.566ZM12.6215 84.3818C10.8314 82.8359 11.2039 80.3407 10.904 78.2344C10.5587 75.7935 9.53194 73.2984 10.7677 70.9298C11.104 70.2879 11.5583 69.7726 12.0672 69.393C11.5674 70.0439 11.2493 70.8484 11.1312 71.7073C10.7768 74.2024 12.0853 76.4715 12.5851 78.8491C13.0122 80.8741 12.5033 83.8574 14.7114 85.0688C14.7841 85.105 14.8568 85.1411 14.9295 85.1683C14.1571 85.2496 13.3575 85.0327 12.6215 84.3908V84.3818ZM18.8096 81.7962C18.5824 82.3839 18.228 82.9715 17.7918 83.4777C17.4102 83.758 17.0013 84.0111 16.5742 84.0925C14.9295 84.4089 14.4025 82.7726 14.2571 81.5521C14.0844 80.1147 14.0299 78.8401 13.5665 77.4479C12.7123 74.8714 10.6587 70.3422 13.8663 68.6697C14.4025 68.5974 14.9477 68.6336 15.4838 68.7963C15.7746 68.9138 16.0472 69.0585 16.3198 69.2302C18.2916 70.523 19.0367 72.8373 19.3366 75.0522C19.6365 77.2399 19.6092 79.717 18.8186 81.8053L18.8096 81.7962Z" fill="#DA4049"/>
<path d="M30.8588 49.3593C30.3226 49.0067 29.5957 48.9615 28.9415 49.1785C27.7783 49.5672 27.1968 50.7244 26.9242 51.8363C26.6607 52.9031 26.4426 54.3495 27.4058 55.1451C29.6957 57.0526 32.031 53.111 31.9128 51.1764C31.8674 50.4532 31.4948 49.7119 30.8588 49.3593ZM30.6589 52.1437C30.6407 52.1889 30.6316 52.2341 30.6134 52.2793C30.4226 52.7946 30.1591 53.328 29.8047 53.7529C29.1414 54.5394 28.0691 54.6298 27.9419 53.4184C27.851 52.5324 28.3781 50.8962 29.2141 50.4803C30.568 49.8023 30.8042 50.9956 30.6679 52.1347L30.6589 52.1437Z" fill="#DA4049"/>
<path d="M181 39.2888C181 36.866 179.755 34.7505 177.865 33.3222C177.52 32.8159 176.856 32.391 176.402 32.2735C175.412 32.0294 174.348 32.617 174.194 33.6476C174.148 33.955 174.23 34.2352 174.503 34.398C175.093 34.7596 175.784 35.1935 175.957 35.9077C176.093 36.4772 175.957 36.9925 175.639 37.3993C174.839 38.0412 173.867 38.3305 172.876 38.6107C172.349 38.1858 171.804 37.7971 171.232 37.4355C166.634 34.5336 161.063 33.9912 155.839 35.2026C153.158 29.1546 149.496 23.5587 144.862 18.7492C133.576 7.01492 117.247 1.45514 101.263 0.243743C84.2527 -1.03998 66.4608 2.64846 51.9492 11.743C47.5693 14.4912 43.3167 17.8362 39.4639 21.6421C36.7742 19.0928 33.3121 17.0135 29.6592 16.227C26.1063 15.4586 23.1258 16.7604 20.8814 19.5267C18.3189 22.6817 16.338 26.4787 14.5751 30.1219C13.7392 31.8576 13.0213 33.6476 12.1944 35.3924C11.5765 36.7032 10.9586 38.1406 10.0499 39.334C9.4411 39.5509 8.77776 39.8221 8.18712 40.1657C7.60556 40.3646 7.07853 40.69 6.66053 41.2686C6.55149 41.4132 6.46971 41.576 6.4061 41.7296C5.88816 42.3805 5.71551 43.2122 6.23345 44.2157C7.28752 46.295 10.1044 46.6204 12.1126 45.9334C12.785 45.7074 13.4029 45.3819 14.0118 45.0294C14.875 44.6677 15.6837 44.2609 16.3561 43.9084C19.6547 42.1455 22.8078 39.5057 24.8887 36.3868C25.4611 35.537 26.0063 34.6782 26.5334 33.8013C26.7424 34.2443 27.0513 34.6511 27.2967 35.0579C27.5784 35.519 27.8055 36.1608 28.1781 36.5857C24.9341 42.6789 22.9259 49.3144 22.7533 56.2122C20.3998 56.3388 18.1099 57.0077 16.0381 58.4361C16.0109 58.4542 15.9836 58.4813 15.9654 58.4994C13.1939 58.2915 10.377 58.7616 7.66917 60.1176C-1.2995 64.6287 -1.32676 76.9777 2.0717 85.0236C5.66099 93.5124 13.3393 99.2801 21.7628 102.544C23.4348 103.195 25.1613 103.737 26.9241 104.162C25.1067 106.666 23.2439 109.161 21.5447 111.756C20.218 113.781 19.6092 115.959 20.5633 118.292C21.5447 120.697 23.8709 122.731 25.761 124.439C27.7147 126.202 29.85 127.82 32.1217 129.158C36.6379 131.825 41.7356 133.471 46.9968 133.57C48.1145 133.588 49.0323 133.443 49.7683 133.037C49.8228 135.505 50.4953 138.081 51.8946 140.097C53.4848 142.393 55.9201 144.03 58.3644 145.313C63.9892 148.251 70.3772 150.105 76.7379 148.911C78.3281 148.613 80.0001 148.125 81.5358 147.384C85.3159 146.064 88.36 143.062 88.6235 138.786C88.7416 136.888 88.578 134.935 88.3327 133C88.5235 129.683 88.4145 126.347 88.0328 123.047C90.2318 123.725 92.7762 123.825 94.957 123.87C98.0374 123.942 101.118 123.725 104.162 123.291C104.325 123.264 104.48 123.246 104.644 123.219C103.571 125.85 102.317 128.688 102.517 131.491C102.708 134.203 104.616 136.038 106.979 137.132C109.823 138.452 113.094 138.949 116.211 138.759C117.838 138.66 119.564 138.298 120.836 137.358C121.336 138.551 122.072 139.636 123.208 140.513C125.661 142.384 128.923 142.728 131.913 142.701C138.783 142.628 145.707 140.477 151.359 136.571C154.03 134.727 156.856 132.087 158.274 129.131C159.955 125.633 158.583 122.143 157.392 118.726C154.748 111.132 152.631 105.066 149.85 97.5173C149.796 97.3636 151.459 95.3114 151.64 95.0493C153.485 92.3462 155.03 89.5257 156.311 86.5966C160.255 77.5382 161.581 67.5487 161.073 57.514C160.854 53.1656 160.182 48.8353 159.083 44.6135C161.045 44.3423 162.863 44.3604 164.625 45.0836C161.936 48.1031 162.063 53.2651 164.344 56.5196C166.752 59.9549 171.232 61.1572 174.812 58.7254C178.51 56.2122 179.428 51.6197 178.51 47.4793C178.301 46.5572 178.01 45.6622 177.638 44.8124C179.764 44.0078 180.945 41.4584 180.945 39.2707L181 39.2888ZM175.684 33.5934C175.966 33.3403 176.493 33.5934 176.984 33.8555C177.156 34.2804 177.174 34.7234 177.083 35.1574C176.802 34.5336 176.266 34.0092 175.684 33.5934ZM27.1149 32.843C27.5511 32.0927 27.9873 31.3333 28.3871 30.5649C29.2412 28.9286 30.4043 27.0753 30.4861 25.195C30.4861 25.1136 30.3862 25.0684 30.3317 25.1317C29.423 26.1261 28.9777 27.4098 28.3871 28.6031C27.7147 29.9592 26.9786 31.2791 26.1517 32.5537C24.5524 35.0127 22.5533 37.3089 20.3634 39.2707C18.1826 41.2324 15.7201 42.9049 12.9668 43.9626C11.4493 44.5412 9.04128 45.3096 7.83273 43.7908C7.74186 43.5648 7.72369 43.2846 7.79638 42.941C8.07808 41.5488 9.91361 41.368 11.1222 40.916C11.5674 40.7533 12.0036 40.5815 12.4397 40.4098C13.5847 40.1928 14.7205 39.8221 15.7746 39.334C18.1463 38.2401 20.1817 35.9891 21.681 33.9098C21.7537 33.8103 21.5992 33.6928 21.5084 33.7832C18.8459 36.4863 15.2294 37.9779 11.5856 38.9C12.7305 37.4988 13.5392 35.8896 14.3298 34.0635C15.8746 30.4654 17.6556 26.9849 19.7183 23.6581C21.7537 20.3765 24.2071 16.6971 28.6052 17.9175C32.0763 18.8848 35.3748 20.7833 38.3826 22.7631C34.7842 26.4877 31.5947 30.6282 29.0413 35.076C28.8778 34.8319 28.696 34.5969 28.5325 34.3708C28.1417 33.8284 27.7056 33.2046 27.1149 32.8611V32.843ZM25.1794 101.531C17.6737 99.1445 10.1953 94.7057 5.84272 87.9978C1.4538 81.2267 -0.717948 69.5557 5.88816 63.345C9.33205 60.1086 14.5297 59.4486 19.0004 60.4702C23.9709 61.6002 28.1054 64.6829 32.1036 67.6572C32.1308 67.6753 32.1581 67.6301 32.1399 67.612C28.7687 63.5348 23.9255 60.1266 18.7187 58.9243C20.8087 58.9604 22.8896 59.1503 24.9068 59.765C27.4966 60.5515 30.6679 61.998 32.6397 63.8874C32.667 63.9145 32.7124 63.8693 32.6851 63.8422C30.5407 61.2928 28.5325 59.5119 25.2521 58.5446C23.0713 57.9027 20.7723 57.6586 18.5733 58.1016C22.0354 56.6371 25.97 56.9987 29.5502 58.2643C33.9209 59.8102 38.3462 62.3053 41.9355 65.2434C44.0982 67.0153 46.0246 69.0856 47.642 71.3728C51.8855 78.614 54.448 87.2475 49.7592 94.977C47.4875 98.7287 43.7892 101.504 39.5548 102.706C34.7751 104.053 29.7955 102.996 25.1794 101.522V101.531ZM45.2067 131.292C40.8178 130.758 36.6652 129.113 32.9123 126.826C29.214 124.575 25.2976 121.555 22.9168 117.903C22.099 116.647 21.5629 115.354 22.2081 113.898C22.6442 112.904 23.353 112.009 23.9527 111.105C25.4157 108.908 26.8241 106.675 28.2417 104.442C29.9046 104.777 31.5765 104.985 33.2394 105.048C35.9836 112.163 43.0623 117.415 50.2954 119.901C50.6043 120.362 50.7315 120.959 50.7588 121.592C49.5684 121.239 48.378 120.932 47.1968 120.534C45.7974 120.055 44.4798 119.368 43.0532 118.988C43.0532 118.988 43.035 118.988 43.0259 118.988C42.9532 118.988 42.8987 119.087 42.9623 119.142C44.816 121.049 47.9964 122.45 50.6497 123.074C50.5861 123.499 50.4953 123.924 50.4044 124.331C48.9142 124.231 47.5421 123.788 46.2699 123.011C46.2426 122.993 46.2154 122.984 46.1881 122.984C46.0518 122.984 45.9337 123.174 46.0609 123.273C47.2785 124.24 48.6688 124.891 50.1954 125.19C50.1136 125.497 50.0409 125.795 49.9864 126.048C49.9501 126.22 49.9046 126.392 49.8592 126.564C49.5866 126.491 49.314 126.428 49.0505 126.338C48.5416 126.166 48.0509 125.958 47.5693 125.723C47.5239 125.705 47.4784 125.687 47.433 125.687C47.1786 125.687 47.0241 126.03 47.2876 126.193C48.0055 126.645 48.8142 127.124 49.6411 127.377C49.5775 127.594 49.5139 127.811 49.4412 128.028C49.2958 127.911 49.1141 127.893 48.9232 127.893H48.7869C48.7869 127.893 48.7324 127.893 48.6961 127.893C48.3326 127.884 48.0418 127.857 47.7056 127.712C47.6874 127.712 47.6602 127.703 47.642 127.703C47.5148 127.703 47.3876 127.847 47.5148 127.956C47.7874 128.182 48.1145 128.417 48.4417 128.562C48.6052 128.634 48.8233 128.697 49.0323 128.697C49.0959 128.697 49.1595 128.688 49.2231 128.67C48.9142 129.592 48.587 130.496 48.269 131.427C47.3876 131.635 46.0882 131.373 45.1977 131.265L45.2067 131.292ZM114.784 136.526C112.349 136.544 109.741 136.128 107.479 135.197C102.681 133.226 105.607 127.007 106.897 122.921C111.568 122.921 117.011 121.79 118.628 120.579C118.683 121.257 118.746 121.989 118.819 122.749C117.801 122.866 116.811 123.409 115.793 123.617C114.83 123.806 113.867 123.87 112.894 123.87C112.404 123.87 111.913 123.852 111.422 123.834H111.413C111.195 123.834 111.159 124.168 111.368 124.222C112.349 124.484 113.34 124.611 114.339 124.611C114.857 124.611 115.384 124.575 115.911 124.512C116.883 124.394 118.037 124.277 118.91 123.77C118.955 124.24 119.001 124.72 119.046 125.199C117.965 125.578 116.811 125.768 115.657 125.768C115.502 125.768 115.348 125.768 115.193 125.759C115.012 125.759 114.975 126.048 115.157 126.094C115.829 126.265 116.475 126.347 117.12 126.347C117.765 126.347 118.455 126.256 119.137 126.076C119.182 126.546 119.228 127.016 119.273 127.486C118.728 127.621 118.174 127.694 117.61 127.694C117.347 127.694 117.083 127.676 116.829 127.649H116.811C116.684 127.649 116.665 127.847 116.793 127.893C117.383 128.073 117.965 128.155 118.546 128.155C118.801 128.155 119.064 128.137 119.328 128.101C119.373 128.571 119.428 129.032 119.473 129.475C119.446 129.475 119.428 129.475 119.4 129.475C119.237 129.475 119.064 129.493 118.901 129.493L117.874 129.511C117.692 129.511 117.701 129.773 117.874 129.791L118.901 129.891C119.101 129.909 119.31 129.954 119.519 129.954C119.555 130.279 119.591 130.605 119.619 130.921C119.5 130.903 119.391 130.876 119.282 130.831C119.237 130.813 119.201 130.804 119.164 130.804C118.919 130.804 118.764 131.129 119.019 131.283C119.228 131.409 119.446 131.491 119.682 131.536C119.691 131.653 119.709 131.771 119.719 131.888C119.828 132.883 119.946 133.886 120.137 134.863C118.846 136.372 116.684 136.526 114.766 136.544L114.784 136.526ZM148.851 93.5667C148.669 93.7656 147.86 92.0027 147.679 91.5145C147.224 90.3122 145.316 90.7913 145.716 92.0569C147.997 99.1988 150.368 106.295 152.822 113.374C154.039 116.882 155.375 120.362 156.511 123.888C157.747 127.694 155.048 130.46 152.14 132.557C146.915 136.327 141.127 139.03 134.648 139.726C131.922 140.016 128.751 140.215 126.161 139.139C122.772 137.729 122.599 134.085 122.217 130.921C121.218 122.713 119.809 114.531 118.455 106.368C118.374 105.871 117.629 105.961 117.665 106.458C117.738 107.561 117.81 108.673 117.892 109.785C116.883 109.351 115.938 108.854 115.102 108.076C114.83 107.823 114.43 108.14 114.594 108.465C115.293 109.866 116.493 111.141 118.019 111.647C118.11 112.94 118.201 114.242 118.292 115.535C114.412 117.225 110.423 118.617 106.325 119.548C102.981 120.317 99.6367 120.968 96.211 121.203C93.4667 121.384 90.5862 121.058 87.842 121.293C87.8057 121.049 87.7693 120.796 87.733 120.552C87.8148 120.498 87.8784 120.416 87.942 120.308C88.7961 118.617 89.6685 116.809 89.5322 114.857C89.514 114.64 89.205 114.585 89.1414 114.802C88.7053 116.213 88.3055 117.632 87.4422 118.825C87.2241 117.677 86.9788 116.538 86.6971 115.417C86.5244 114.748 85.3886 114.866 85.4522 115.58C86.0428 121.573 85.5521 127.621 85.7975 133.633C85.8974 136.056 86.2791 138.804 85.434 141.128C84.3799 144.021 81.7175 145.476 78.9097 146.344C72.9033 148.215 66.8333 147.13 61.2086 144.563C58.7824 143.451 56.12 142.231 54.2481 140.287C52.1581 138.117 51.6129 135.378 51.7765 132.458C51.9582 129.068 52.9396 125.795 53.7211 122.514C53.8937 121.781 54.0755 121.04 54.2481 120.308C54.339 120.145 54.3844 119.955 54.3753 119.774C54.9841 117.234 55.5839 114.694 56.12 112.135C56.1563 111.955 55.8928 111.873 55.8201 112.054C54.9751 114.332 54.1845 116.638 53.4121 118.943C49.4412 117.975 45.7156 116.222 42.4534 113.754C40.3726 112.172 38.6097 110.309 36.9741 108.329C37.7101 108.429 38.4734 108.483 39.264 108.483C44.4525 108.483 50.4226 106.359 52.2763 101.649C52.3035 101.567 52.2308 101.495 52.1491 101.495C52.1309 101.495 52.1127 101.495 52.0945 101.513C47.3512 104.551 42.4444 107.534 36.6379 107.534C36.5379 107.534 36.4289 107.534 36.3289 107.534C35.5929 106.549 37.065 106.069 38.3008 105.762C45.1159 104.062 47.1059 102.941 50.1045 99.0541C53.2758 94.9498 54.448 89.7788 54.0209 84.6077C53.7483 81.3171 52.7306 78.2253 51.2949 75.3143C50.0954 72.8915 48.687 70.5591 46.8878 68.5251C46.2154 67.7657 45.4884 67.0425 44.7615 66.3373C44.0345 65.6322 43.2894 64.918 42.4716 64.3123C42.3171 64.1857 42.1536 64.0592 41.9991 63.9416C37.2467 60.2803 30.2408 56.2664 23.6892 56.2212C26.0245 40.1928 35.4657 26.108 48.378 16.4349C61.8447 6.31882 78.9733 1.66307 95.693 1.82579C111.231 1.97948 128.242 6.23746 140.055 16.7784C150.477 26.0809 156.784 39.56 158.183 53.2741C158.892 60.217 159.228 82.1397 148.842 93.5667H148.851ZM175.139 56.4201C173.494 57.9208 171.268 58.5627 169.123 57.8033C165.789 56.61 163.299 51.7282 165.216 48.4827C165.652 47.7414 166.67 47.3075 167.506 47.416C169.314 47.6601 170.05 50.2637 170.459 51.7101C170.841 53.0662 169.887 53.8979 168.596 54.0154C168.506 54.0154 168.433 54.1691 168.542 54.2143C169.896 54.82 171.05 53.482 171.386 52.2797C171.922 50.3722 170.995 48.4285 169.841 46.9369C167.679 44.1434 163.68 42.1817 159.864 42.5161C159.155 42.5794 158.474 42.2721 158.265 41.6031C157.756 39.9487 157.202 38.4661 156.511 36.7665C161.118 35.8896 166.034 36.4592 170.068 38.9362C173.694 41.1691 176.884 45.1198 177.374 49.441C177.665 51.9904 177.093 54.6301 175.13 56.4201H175.139ZM177.202 43.7727C176.311 42.0822 175.103 40.5634 173.667 39.2707C175.148 39.3068 176.693 38.7373 177.583 37.5169C178.21 36.658 178.347 35.6817 178.138 34.7234C180.228 37.3722 180.527 42.0732 177.202 43.7637V43.7727Z" fill="#DA4049"/>
<path d="M54.5842 15.3594C53.0668 15.7301 51.5856 16.9415 50.3135 17.8003C48.9413 18.7224 47.6147 19.7078 46.3243 20.7384C43.6165 22.9081 41.1176 25.3309 38.8368 27.9435C34.3752 33.0784 30.9495 38.9094 28.705 45.3189C28.6233 45.563 29.0231 45.7348 29.1321 45.4997C31.7491 39.3523 35.3293 33.5304 39.7455 28.495C41.8627 26.0812 44.1799 23.8302 46.6696 21.7961C48.0781 20.648 49.5411 19.5631 51.0495 18.5597C52.3035 17.7189 53.9027 17.068 54.9568 16.0013C55.2294 15.721 54.9568 15.269 54.5842 15.3594Z" fill="#DA4049"/>
<path d="M57.1921 13.2157L56.8559 13.3333C56.5924 13.4237 56.447 13.6858 56.5561 13.957C56.656 14.1921 56.974 14.3367 57.2103 14.174C57.3103 14.1107 57.4102 14.0384 57.5193 13.9751C57.6919 13.8576 57.7737 13.6497 57.6919 13.4598C57.6192 13.279 57.392 13.1524 57.2012 13.2157H57.1921Z" fill="#DA4049"/>
<path d="M61.5629 11.4172H61.4902C61.4448 11.4444 61.3993 11.4624 61.363 11.4986L61.1722 11.6433C61.1176 11.6885 61.0813 11.7879 61.0813 11.8602C61.0813 11.9325 61.1176 12.0229 61.1722 12.0772C61.2267 12.1314 61.3085 12.1676 61.3902 12.1676C61.4629 12.1676 61.5629 12.1405 61.6083 12.0772L61.7537 11.8873C61.7992 11.8241 61.8355 11.7698 61.8355 11.6885C61.8355 11.6161 61.8082 11.5438 61.7537 11.4896C61.6992 11.4444 61.6356 11.4082 61.5538 11.4082L61.5629 11.4172Z" fill="#DA4049"/>
<path d="M37.6193 34.1907C37.6193 34.1907 37.583 34.1907 37.5557 34.1997C35.8928 34.7783 34.7479 37.2644 33.821 38.6475C32.5489 40.546 31.4948 42.562 30.6407 44.6774C30.5861 44.813 30.6952 44.8944 30.8133 44.8944C30.8769 44.8944 30.9405 44.8673 30.9769 44.813C32.3126 42.9869 33.5939 41.1246 34.8569 39.2442C35.7929 37.852 37.7102 36.1072 37.8465 34.4167C37.8556 34.2901 37.7375 34.1816 37.6102 34.1816L37.6193 34.1907Z" fill="#DA4049"/>
<path d="M39.5457 31.4048C39.5457 31.4048 39.4912 31.3867 39.4639 31.3867C39.4094 31.3867 39.3549 31.4048 39.3186 31.45C39.2368 31.5223 39.1732 31.6037 39.1005 31.685C38.9642 31.8297 38.9914 32.0647 39.1641 32.1642C39.2095 32.1913 39.264 32.2003 39.3186 32.2003C39.4549 32.2003 39.5912 32.119 39.6184 31.9743C39.6457 31.8478 39.6729 31.7212 39.682 31.5946C39.682 31.5133 39.6184 31.4319 39.5548 31.4048H39.5457Z" fill="#DA4049"/>
<path d="M53.612 98.4941C53.612 98.4941 53.5484 98.4941 53.512 98.5213C53.3757 98.6026 53.2394 98.6659 53.1304 98.7925C53.0304 98.91 52.9214 99.0275 52.8214 99.136C52.676 99.2987 52.676 99.5428 52.8578 99.6875C52.9214 99.7417 53.0032 99.7598 53.0849 99.7598C53.2122 99.7598 53.3303 99.6965 53.403 99.579C53.4848 99.4524 53.5665 99.3168 53.6483 99.1902C53.7392 99.0546 53.7665 98.901 53.8028 98.7473C53.8392 98.6117 53.7301 98.4941 53.6029 98.4941H53.612Z" fill="#DA4049"/>
<path d="M48.9233 107.426C48.9233 107.426 48.9051 107.426 48.896 107.426C47.3967 107.733 46.1609 108.863 44.7343 109.415C43.1441 110.02 41.3812 110.283 39.682 110.319C39.5821 110.319 39.5548 110.472 39.6548 110.499C40.3999 110.689 41.3358 110.798 42.3263 110.798C45.0432 110.798 48.1963 109.975 49.0869 107.625C49.1232 107.516 49.0232 107.435 48.9324 107.435L48.9233 107.426Z" fill="#DA4049"/>
<path d="M51.4766 105.455C51.4766 105.455 51.4311 105.455 51.413 105.482L51.1676 105.771C51.0949 105.862 51.0949 105.997 51.204 106.061C51.2312 106.079 51.2676 106.088 51.2948 106.088C51.3766 106.088 51.4584 106.034 51.4766 105.952C51.5038 105.826 51.5402 105.699 51.5674 105.582C51.5856 105.518 51.5311 105.464 51.4766 105.464V105.455Z" fill="#DA4049"/>
<path d="M146.243 29.092C144.562 26.5245 142.554 24.1469 140.373 21.9772C136.084 17.7193 131.013 14.2388 125.334 12.0962C125.298 12.0872 125.271 12.0781 125.234 12.0781C124.962 12.0781 124.816 12.5211 125.089 12.6567C130.405 15.2693 135.339 18.6143 139.446 22.8813C141.509 25.0148 143.317 27.3472 144.953 29.8242C145.734 31.0085 146.47 32.2289 147.142 33.4855C147.688 34.5071 148.042 36.0078 149.16 36.514C149.205 36.5321 149.251 36.5412 149.296 36.5412C149.405 36.5412 149.505 36.4779 149.55 36.3513C149.932 35.2032 149.033 33.9737 148.515 32.9702C147.824 31.6323 147.061 30.3305 146.234 29.0648L146.243 29.092Z" fill="#DA4049"/>
<path d="M151.268 38.8189C151.223 38.7013 151.168 38.6109 151.059 38.5477C150.995 38.5115 150.905 38.4844 150.814 38.4844C150.777 38.4844 150.732 38.4844 150.696 38.5025C150.468 38.5748 150.296 38.8189 150.368 39.072C150.405 39.1805 150.441 39.289 150.468 39.3974C150.532 39.5783 150.686 39.7229 150.877 39.741C150.923 39.75 150.968 39.7591 151.014 39.7591C151.123 39.7591 151.223 39.7139 151.277 39.6054C151.277 39.5963 151.286 39.5873 151.295 39.5782L151.268 39.5963C151.377 39.4969 151.45 39.2799 151.386 39.1353C151.341 39.0268 151.295 38.9273 151.25 38.8189H151.268Z" fill="#DA4049"/>
<path d="M152.304 42.5522C152.267 42.4166 152.14 42.3262 152.004 42.3262C151.967 42.3262 151.922 42.3262 151.886 42.3533C151.813 42.3895 151.758 42.4347 151.722 42.516C151.686 42.6155 151.695 42.6968 151.74 42.7872L151.813 42.9319C151.84 42.9952 151.922 43.0494 151.986 43.0675C152.013 43.0675 152.04 43.0675 152.058 43.0675C152.095 43.0675 152.14 43.0675 152.176 43.0404C152.313 42.9861 152.385 42.8415 152.349 42.6968L152.304 42.5431V42.5522Z" fill="#DA4049"/>
<path d="M175.848 46.8564C176.157 45.6811 175.084 44.3612 174.403 43.4663C173.449 42.2097 172.268 41.1791 170.932 40.3474C168.115 38.5845 164.98 37.9336 161.745 37.9336C161.245 37.9336 160.736 37.9517 160.228 37.9788V38.015C163.562 38.3585 167.124 39.1721 169.959 41.0073C171.168 41.7938 172.258 42.7701 173.176 43.8731C173.976 44.8313 174.358 46.1603 175.212 47.0191C175.284 47.0914 175.375 47.1276 175.466 47.1276C175.621 47.1276 175.784 47.0281 175.83 46.8564H175.848Z" fill="#DA4049"/>
<path d="M176.211 48.6637C176.166 48.5733 176.093 48.5371 176.011 48.5371C175.92 48.5371 175.821 48.5914 175.757 48.6637C175.711 48.727 175.648 48.7722 175.612 48.8354C175.566 48.9168 175.557 49.0072 175.548 49.0976C175.539 49.2423 175.53 49.3779 175.512 49.5225C175.493 49.7123 175.666 49.8751 175.848 49.9022C175.866 49.9022 175.875 49.9022 175.893 49.9022C176.057 49.9022 176.248 49.8028 176.275 49.6219C176.293 49.4773 176.32 49.3236 176.338 49.179C176.357 49.0614 176.366 48.953 176.302 48.8445C176.257 48.7631 176.248 48.7541 176.211 48.6727V48.6637Z" fill="#DA4049"/>
<path d="M175.266 51.8006C175.266 51.8006 175.175 51.7734 175.139 51.7734C174.994 51.7734 174.857 51.8638 174.812 52.0175C174.794 52.0808 174.776 52.1441 174.766 52.2074C174.757 52.2797 174.757 52.3339 174.785 52.4063C174.812 52.4605 174.848 52.5238 174.912 52.5509C174.957 52.578 175.021 52.5871 175.075 52.5871C175.157 52.5871 175.23 52.5599 175.284 52.4967C175.348 52.4243 175.393 52.352 175.439 52.2707C175.557 52.0989 175.448 51.8638 175.275 51.7915L175.266 51.8006Z" fill="#DA4049"/>
</svg>
