<svg width="72" height="72" viewBox="0 0 72 72" fill="none" xmlns="http://www.w3.org/2000/svg">
<path d="M54.1294 46.5575L46.6139 51.9615L31.8822 62.5512L21.9073 45.344L21.4139 44.4946L21.3978 44.5026L5.71132 53.442L1.78784 46.6707L21.4139 35.4824L21.9073 36.3319L25.8309 43.1031L31.8822 53.5391L42.941 45.6271L46.63 42.9817L50.4646 40.2393L51.8966 42.7067L54.1294 46.5575Z" stroke="#1C40D0" stroke-width="1.61798" stroke-linecap="round" stroke-linejoin="round"/>
<path d="M21.4141 26.4697H21.3979L21.8914 27.3353H21.9075L21.4141 26.4697Z" stroke="#1C40D0" stroke-width="1.61798" stroke-linecap="round" stroke-linejoin="round"/>
<path d="M70.3093 38.4678L48.0621 54.4615L31.8823 62.5514L46.6139 51.9617L54.1295 46.5577L70.3093 38.4678Z" stroke="#1C40D0" stroke-width="1.61798" stroke-linecap="round" stroke-linejoin="round"/>
<path d="M70.3093 20.4512L48.0621 36.4368L44.009 38.4593L39.964 40.4898L31.8823 44.5267L39.236 39.244L42.9249 36.5905L46.6139 33.937L54.1295 28.5411L70.3093 20.4512Z" stroke="#1C40D0" stroke-width="1.61798" stroke-linecap="round" stroke-linejoin="round"/>
<path d="M70.3091 38.4676L54.1293 46.5575L51.8965 42.7067L50.4646 40.2393L66.6444 32.1494L70.3091 38.4676Z" stroke="#1C40D0" stroke-width="1.61798" stroke-linecap="round" stroke-linejoin="round"/>
<path d="M70.3091 20.451L54.1293 28.5409L51.8965 24.6901L50.4646 22.2227L66.6444 14.1328L70.3091 20.451Z" stroke="#1C40D0" stroke-width="1.61798" stroke-linecap="round" stroke-linejoin="round"/>
<path d="M46.6306 24.9652L42.9417 27.6025L39.2528 30.2479L31.8828 35.5225L29.7553 31.8578L29.5125 31.4371L25.8316 25.0865L21.908 18.3153L21.4146 17.4659L37.5943 9.37598L46.6306 24.9652Z" stroke="#1C40D0" stroke-width="1.61798" stroke-linecap="round" stroke-linejoin="round"/>
<path d="M5.71118 35.4258L21.891 27.3359" stroke="#1C40D0" stroke-width="1.61798" stroke-linecap="round" stroke-linejoin="round"/>
<path d="M54.1294 28.5409L46.6139 33.9368L42.9248 36.5903L39.236 39.2438L31.8822 44.5265L29.7627 40.8699L25.8309 34.0986L25.467 33.4595L21.9073 27.3274L21.4139 26.4699L21.3978 26.478L5.71132 35.4254L1.78784 28.6541L21.4139 17.4658L21.9073 18.3153L25.8309 25.0865L29.5119 31.4371L29.7546 31.8577L31.8822 35.5224L39.2521 30.2478L42.941 27.6024L46.63 24.9651L50.4646 22.2227L51.8966 24.6901L54.1294 28.5409Z" stroke="#1C40D0" stroke-width="1.61798" stroke-linecap="round" stroke-linejoin="round"/>
<path d="M46.6297 42.9818L42.9407 45.6272L31.8819 53.5391L25.8307 43.1031L21.907 36.3319L21.4136 35.4824L25.4666 33.46L25.8307 34.0991L29.7624 40.8703L31.8819 44.5269L39.9637 40.4901L44.0086 38.4595L46.6297 42.9818Z" stroke="#1C40D0" stroke-width="1.61798" stroke-linecap="round" stroke-linejoin="round"/>
<path d="M21.9072 45.3436L21.891 45.3517L5.71118 53.4416L21.3976 44.5022L21.4138 44.4941L21.9072 45.3436Z" stroke="#1C40D0" stroke-width="1.61798" stroke-linecap="round" stroke-linejoin="round"/>
</svg>
