<svg width="72" height="72" viewBox="0 0 72 72" fill="none" xmlns="http://www.w3.org/2000/svg">
<path d="M21.3617 11.1406V11.1803L21.3957 11.1633L21.3617 11.1406Z" stroke="#1C40D0" stroke-width="1.13386" stroke-linecap="round" stroke-linejoin="round"/>
<path d="M48.0416 54.1648C47.8942 53.1386 47.6787 52.1182 47.4009 51.0977C47.1174 50.0829 46.7546 49.0624 46.3067 48.0306L46.4371 47.9569L49.9407 46.0237L50.1108 45.9273L49.7083 45.2243L48.6255 43.3307L46.9814 40.4621L43.1773 42.6278C42.9902 42.35 42.7748 42.0665 42.531 41.7774C42.2872 41.4882 42.0548 41.2104 41.8337 40.9553L38.6986 37.3496L42.9506 34.9912L39.7644 29.492L35.6257 31.8504L34.2255 27.8309C34.1518 27.5758 34.0667 27.3377 33.976 27.1109C33.8796 26.8841 33.7947 26.6687 33.7209 26.4533L35.3254 25.5405L37.3606 24.3783L34.1688 18.9415L32.7288 19.7635L30.6483 20.9541C29.9396 19.9449 29.1799 19.0152 28.3805 18.1704C27.5812 17.32 26.7308 16.5547 25.835 15.863V10.5396L25.0583 10.0917L24.3496 9.6835L21.3618 7.95437V11.1405L21.3959 11.1632L21.3618 11.1802V13.4082C20.6532 13.2155 19.9842 13.0851 19.3492 13.017C19.3266 13.017 19.2983 13.0114 19.2756 13.0114C18.669 12.949 18.0736 12.9887 17.501 13.1078L16.475 11.3389L13.9804 7.03027L10.8453 8.8161L13.2434 12.9547L14.3716 14.8936C13.9577 15.3415 13.6234 15.8517 13.3626 16.43C13.1018 17.0082 12.8806 17.6489 12.6935 18.3518L7.93701 15.6079V20.7443L12.5801 23.4259C12.7275 24.4917 12.9599 25.5802 13.2774 26.6857C13.5949 27.7855 14.0144 28.8967 14.536 30.0079L11.0154 32.0205L14.1449 37.4233L17.7788 35.4107C17.9659 35.6489 18.1361 35.8643 18.2835 36.057C18.4365 36.2498 18.6009 36.4426 18.788 36.6353L21.753 40.0142L17.3877 42.503L20.5228 47.9059L24.8825 45.4851L26.3963 49.7541C26.5097 50.0375 26.6173 50.3267 26.7307 50.6215C26.844 50.9219 26.9518 51.2111 27.0652 51.4945L23.2044 53.7566L26.3395 59.0968L30.2003 57.0219C30.8693 57.9686 31.5894 58.819 32.3547 59.5844C33.1144 60.3441 33.925 61.0584 34.7867 61.7274V67.0508L39.2598 69.636V64.1822C39.9685 64.3749 40.6375 64.5053 41.2724 64.5734C41.9074 64.6414 42.5254 64.6074 43.1207 64.4826L44.5719 66.9828L46.5336 70.3674L49.7197 68.6779L47.8147 65.3614L46.2501 62.6345C46.4826 62.3793 46.6922 62.1072 46.8737 61.8181C47.0211 61.597 47.1458 61.3702 47.2592 61.1264C47.5199 60.5708 47.7411 59.9415 47.9282 59.2386L50.3036 60.6105L50.5984 60.7806L52.6847 61.9825V56.8461L48.0416 54.1648ZM28.0403 30.3367C27.9496 31.1134 27.6321 31.6577 27.0935 31.9638C26.4416 32.338 25.6478 32.253 24.7181 31.7144C23.7826 31.1758 22.9946 30.3424 22.3426 29.2199C21.685 28.0917 21.3618 26.9975 21.3618 25.926C21.3618 24.8545 21.685 24.1345 22.3426 23.766C22.9946 23.3918 23.7826 23.4769 24.7181 24.0098C24.9845 24.1629 25.2454 24.3443 25.4891 24.5597C26.0958 25.053 26.6287 25.7049 27.0935 26.51C27.7455 27.6325 28.0743 28.7323 28.0743 29.8038C28.0743 29.9909 28.063 30.1723 28.0403 30.3367ZM38.6873 52.8835C38.6419 53.6432 38.3755 54.1534 37.8879 54.4369C37.3494 54.743 36.686 54.6693 35.9037 54.2215C35.1213 53.7679 34.458 53.0763 33.9194 52.1408C33.3752 51.2111 33.1086 50.2926 33.1086 49.3969C33.1086 48.5011 33.3752 47.8945 33.9194 47.5827C34.3446 47.3389 34.8491 47.3333 35.4274 47.5657C35.5805 47.6281 35.7393 47.7074 35.9037 47.8038C36.686 48.2517 37.3494 48.9433 37.8879 49.8788C38.4322 50.8085 38.6986 51.727 38.6986 52.6227C38.6986 52.7134 38.6986 52.7985 38.6873 52.8835Z" stroke="#1C40D0" stroke-width="1.13386" stroke-linecap="round" stroke-linejoin="round"/>
<path d="M21.3617 11.1406V11.1803L21.3957 11.1633L21.3617 11.1406ZM46.437 47.957L46.3066 48.0307L46.4426 47.9627H46.437V47.957ZM53.8695 36.1082C53.6257 35.8191 53.3932 35.5413 53.1721 35.2861L50.037 31.6805L54.1699 29.3844C52.9964 29.9683 43.591 34.6682 42.9504 34.9913L38.6984 37.3498L41.8336 40.9554C42.0547 41.2105 42.2871 41.4883 42.5309 41.7775C42.7747 42.0666 42.99 42.3501 43.1771 42.6279L46.9812 40.4622L54.374 36.7658C54.2266 36.5504 54.0566 36.3293 53.8695 36.1082ZM59.38 48.4956L48.0414 54.1649L52.6845 56.8462L64.0233 51.1772L59.38 48.4956Z" stroke="#1C40D0" stroke-width="1.13386" stroke-linecap="round" stroke-linejoin="round"/>
<path d="M61.0582 63.0098L57.8722 64.6992L46.5336 70.3685L49.7197 68.6791L57.8267 64.6255L61.0582 63.0098Z" stroke="#1C40D0" stroke-width="1.13386" stroke-linecap="round" stroke-linejoin="round"/>
<path d="M50.3036 60.6112L47.3442 62.0852L46.2501 62.6352C46.4826 62.38 46.6922 62.1079 46.8736 61.8188C47.021 61.5977 47.1458 61.3709 47.2591 61.1271C47.5199 60.5715 47.7411 59.9422 47.9282 59.2393L50.3036 60.6112Z" stroke="#1C40D0" stroke-width="1.13386" stroke-linecap="round" stroke-linejoin="round"/>
<path d="M64.0233 51.1777V56.3141L58.7336 58.9614L55.4851 60.5828L52.6846 61.9831V56.8467L64.0233 51.1777Z" stroke="#1C40D0" stroke-width="1.13386" stroke-linecap="round" stroke-linejoin="round"/>
<path d="M61.4495 40.2588L57.6454 42.3621L49.9692 46.2002L46.4429 47.9634H46.4373L49.9408 46.0301L50.1109 45.9337L61.4495 40.2645V40.2588Z" stroke="#1C40D0" stroke-width="1.13386" stroke-linecap="round" stroke-linejoin="round"/>
<path d="M61.4495 40.2582L50.1109 45.9275L49.7084 45.2245L48.6257 43.3309L46.9814 40.4623L58.32 34.793L61.4495 40.2582Z" stroke="#1C40D0" stroke-width="1.13386" stroke-linecap="round" stroke-linejoin="round"/>
<path d="M59.38 48.4965L48.0414 54.1658C47.894 53.1396 47.6785 52.1192 47.4008 51.0987C47.1173 50.0839 46.7545 49.0634 46.3066 48.0316L46.4427 47.9636L49.9689 46.2004L57.6452 42.3623C58.0931 43.3941 58.4559 44.4146 58.7393 45.4294C59.0171 46.4499 59.2326 47.4703 59.38 48.4965Z" stroke="#1C40D0" stroke-width="1.13386" stroke-linecap="round" stroke-linejoin="round"/>
<path d="M38.6989 52.6237C38.6989 52.7144 38.6989 52.7994 38.6875 52.8845C38.6422 53.6441 38.3758 54.1544 37.8882 54.4378C37.3496 54.744 36.6863 54.6703 35.904 54.2224C35.1216 53.7689 34.4583 53.0772 33.9197 52.1418C33.3755 51.212 33.1089 50.2936 33.1089 49.3979C33.1089 48.5022 33.3755 47.8955 33.9197 47.5837C34.3449 47.3399 34.8494 47.3342 35.4277 47.5667C35.5808 47.629 35.7396 47.7085 35.904 47.8048C36.6863 48.2527 37.3496 48.9443 37.8882 49.8797C38.4325 50.8095 38.6989 51.728 38.6989 52.6237Z" stroke="#1C40D0" stroke-width="1.13386" stroke-linecap="round" stroke-linejoin="round"/>
<path d="M54.2896 29.3225C54.2896 29.3225 54.2499 29.3451 54.1706 29.3848C52.997 29.9688 43.5916 34.6686 42.951 34.9917L39.7648 29.4925L46.8798 25.9379L51.1034 23.8232L54.2896 29.3225Z" stroke="#1C40D0" stroke-width="1.13386" stroke-linecap="round" stroke-linejoin="round"/>
<path d="M48.6994 18.709L45.0598 20.7839L39.3848 23.6243L35.4106 25.6085L33.7212 26.4532L35.3256 25.5405L37.3608 24.3783L39.3564 23.3805L48.6994 18.709Z" stroke="#1C40D0" stroke-width="1.13386" stroke-linecap="round" stroke-linejoin="round"/>
<path d="M46.8796 25.9376L39.7646 29.4922L35.626 31.8506L34.2257 27.8311C34.152 27.576 34.067 27.3379 33.9763 27.1111C33.8799 26.8843 33.7949 26.6689 33.7212 26.4535L35.4106 25.6087L39.3848 23.6245L45.0598 20.7842C45.1335 20.9996 45.2185 21.215 45.3148 21.4418C45.4055 21.6686 45.4906 21.9067 45.5643 22.1618L46.8796 25.9376Z" stroke="#1C40D0" stroke-width="1.13386" stroke-linecap="round" stroke-linejoin="round"/>
<path d="M48.6994 18.7093L39.3564 23.3808L37.3608 24.3786L34.1691 18.9418L35.7225 18.1651L41.851 15.098L45.5077 13.2725L48.6994 18.7093Z" stroke="#1C40D0" stroke-width="1.13386" stroke-linecap="round" stroke-linejoin="round"/>
<path d="M41.8508 15.0983L35.7223 18.1654L34.1689 18.9421L32.7289 19.7642L30.6483 20.9547C29.9396 19.9455 29.18 19.0158 28.3806 18.171C27.5812 17.3206 26.7308 16.5553 25.8351 15.8636L37.1737 10.1943C38.0694 10.886 38.9198 11.6513 39.7192 12.5017C40.4675 13.2954 41.1819 14.1572 41.8508 15.0983Z" stroke="#1C40D0" stroke-width="1.13386" stroke-linecap="round" stroke-linejoin="round"/>
<path d="M37.1737 4.87109V10.1946L25.8351 15.8638V10.5404L31.8445 7.53566L32.7005 7.11046L37.1737 4.87109Z" stroke="#1C40D0" stroke-width="1.13386" stroke-linecap="round" stroke-linejoin="round"/>
<path d="M21.3619 11.1807V13.4087C20.6533 13.2159 19.9842 13.0855 19.3493 13.0175C19.3266 13.0175 19.2983 13.0118 19.2756 13.0118C18.669 12.9495 18.0737 12.9892 17.5011 13.1082L19.2756 12.2238L21.3619 11.1807Z" stroke="#1C40D0" stroke-width="1.13386" stroke-linecap="round" stroke-linejoin="round"/>
<path d="M27.3942 4.93865L24.1626 6.55442L21.362 7.95473V11.1806L19.2757 12.2237L17.5012 13.1081L16.4751 11.3393L13.9806 7.03064L25.3192 1.36133L27.3942 4.93865Z" stroke="#1C40D0" stroke-width="1.13386" stroke-linecap="round" stroke-linejoin="round"/>
<path d="M28.0742 29.8043C28.0742 29.9914 28.0628 30.1728 28.0401 30.3373C27.9494 31.1139 27.632 31.6582 27.0934 31.9643C26.4414 32.3385 25.6476 32.2535 24.7179 31.7149C23.7824 31.1763 22.9945 30.3429 22.3425 29.2204C21.6848 28.0922 21.3617 26.998 21.3617 25.9265C21.3617 24.855 21.6848 24.135 22.3425 23.7665C22.9945 23.3924 23.7824 23.4774 24.7179 24.0103C24.9843 24.1634 25.2452 24.3448 25.4889 24.5602C26.0956 25.0535 26.6285 25.7054 27.0934 26.5105C27.7454 27.633 28.0742 28.7328 28.0742 29.8043Z" stroke="#1C40D0" stroke-width="1.13386" stroke-linecap="round" stroke-linejoin="round"/>
<path d="M37.1734 4.87035L32.7003 7.10969L31.8442 7.53489L25.8348 10.5396L25.0581 10.0917L24.3494 9.68361L21.3617 7.95442L24.1623 6.5541L27.3939 4.93838L32.7003 2.28516L37.1734 4.87035Z" stroke="#1C40D0" stroke-width="1.13386" stroke-linecap="round" stroke-linejoin="round"/>
<path d="M61.0583 63.0088L57.8268 64.6246L49.7197 68.6781L47.8147 65.3616L46.2501 62.6346L47.3442 62.0847L50.3036 60.6107L50.5984 60.7808L52.6847 61.9827L55.4853 60.5824L58.7338 58.9609L61.0583 63.0088Z" stroke="#1C40D0" stroke-width="1.13386" stroke-linecap="round" stroke-linejoin="round"/>
<path d="M44.572 66.9832L39.2599 69.6365V64.1826C39.9685 64.3754 40.6375 64.5058 41.2725 64.5738C41.9074 64.6418 42.5255 64.6078 43.1207 64.4831L44.572 66.9832Z" stroke="#1C40D0" stroke-width="1.13386" stroke-linecap="round" stroke-linejoin="round"/>
<path d="M14.3716 14.894C13.9577 15.3418 13.6234 15.8521 13.3626 16.4304C13.1018 17.0086 12.8806 17.6493 12.6935 18.3522L7.93701 15.6083L13.2434 12.9551L14.3716 14.894Z" stroke="#1C40D0" stroke-width="1.13386" stroke-linecap="round" stroke-linejoin="round"/>
<path d="M38.704 37.35L50.0426 31.6807" stroke="#1C40D0" stroke-width="1.13386" stroke-linecap="round" stroke-linejoin="round"/>
</svg>
