<svg width="72" height="72" viewBox="0 0 72 72" fill="none" xmlns="http://www.w3.org/2000/svg">
<path d="M18.5151 29.5364C18.1773 27.4706 17.3852 25.366 16.1446 23.2226C15.0424 21.3229 13.7852 19.7389 12.3784 18.4817C11.6031 17.7838 10.7778 17.1857 9.90828 16.6817C7.64305 15.3691 5.68792 15.0921 4.0541 15.8398L3.67752 16.0281C1.96613 17.0029 1.10767 18.8915 1.10767 21.6995C1.10767 24.5075 1.96613 27.382 3.67752 30.334C5.3889 33.286 7.46582 35.4681 9.90828 36.8749C12.3563 38.2872 14.4332 38.5087 16.1446 37.5284C17.856 36.5537 18.7088 34.6651 18.7088 31.8571C18.7088 31.0872 18.648 30.3174 18.5151 29.5364ZM12.0018 30.3838C11.4369 30.7051 10.7391 30.622 9.90828 30.1457C9.07751 29.6638 8.37967 28.9383 7.82028 27.9691C7.25536 26.9998 6.97844 26.0361 6.97844 25.0835C6.97844 24.1309 7.25536 23.494 7.82028 23.1727C8.37967 22.8515 9.07751 22.9346 9.90828 23.4109C10.7391 23.8927 11.4369 24.6183 12.0018 25.5875C12.5612 26.5567 12.8437 27.5204 12.8437 28.4731C12.8437 29.4257 12.5612 30.0626 12.0018 30.3838Z" stroke="#1C40D0" stroke-width="1.10769" stroke-linecap="round" stroke-linejoin="round"/>
<path d="M12.8436 28.4734C12.8436 29.4261 12.5611 30.0629 12.0017 30.3842C11.4368 30.7054 10.7389 30.6223 9.90812 30.146C9.07735 29.6642 8.3795 28.9386 7.82012 27.9694C7.25519 27.0002 6.97827 26.0365 6.97827 25.0839C6.97827 24.1313 7.25519 23.4943 7.82012 23.1731C8.3795 22.8518 9.07735 22.9349 9.90812 23.4112C10.7389 23.8931 11.4368 24.6186 12.0017 25.5878C12.5611 26.5571 12.8436 27.5208 12.8436 28.4734Z" stroke="#1C40D0" stroke-width="1.10769" stroke-linecap="round" stroke-linejoin="round"/>
<path opacity="0.1" d="M59.7765 55.573C59.7765 58.3754 58.9236 60.264 57.2122 61.2443C55.5009 62.2191 53.4241 61.9976 50.9761 60.5908C48.5336 59.1785 46.4567 56.9963 44.7453 54.0443C43.2776 51.5132 42.4359 49.0376 42.231 46.6117C42.1922 46.213 42.1755 45.8086 42.1755 45.4098C42.1755 44.7618 42.2198 44.1637 42.314 43.6154C42.6186 41.7766 43.4272 40.4861 44.7453 39.7384L45.1221 39.5502C46.5621 38.8911 48.2512 39.0296 50.1842 39.9711C50.4445 40.093 50.7047 40.2369 50.9761 40.392C51.8456 40.8904 52.671 41.4941 53.4464 42.1975C54.8531 43.4547 56.1101 45.0388 57.2122 46.9384C58.4529 49.0763 59.2449 51.1754 59.5827 53.2412C59.7101 54.0221 59.7765 54.7976 59.7765 55.573Z" stroke="#1C40D0" stroke-width="1.10769" stroke-linecap="round" stroke-linejoin="round"/>
<path opacity="0.1" d="M39.0516 41.389C38.7082 39.3231 37.9163 37.224 36.6757 35.0806C35.5736 33.181 34.3219 31.597 32.9151 30.3397C32.1397 29.6363 31.3145 29.0381 30.445 28.5341C30.1736 28.3791 29.9076 28.235 29.6473 28.1132C27.7088 27.1717 26.0252 27.0332 24.5852 27.6923L24.2087 27.8806C22.8905 28.6283 22.0818 29.9243 21.7827 31.7576C21.6886 32.3059 21.6443 32.904 21.6443 33.552C21.6443 33.9507 21.661 34.3495 21.6942 34.7538C21.9046 37.1797 22.741 39.6554 24.2087 42.1865C25.92 45.1385 27.997 47.3206 30.445 48.7329C32.8874 50.1452 34.9643 50.3613 36.6757 49.3865C38.3871 48.4117 39.2455 46.5231 39.2455 43.7151C39.2455 42.9452 39.179 42.1699 39.0516 41.389ZM32.533 42.2418C31.9736 42.5575 31.2757 42.48 30.445 41.9981C29.6142 41.5218 28.9163 40.7963 28.3514 39.8271C27.792 38.8579 27.5096 37.8941 27.5096 36.9415C27.5096 35.9889 27.792 35.352 28.3514 35.0307C28.9163 34.7095 29.6142 34.7871 30.445 35.2689C31.2757 35.7507 31.9736 36.4707 32.533 37.4455C33.0979 38.4147 33.3802 39.3729 33.3802 40.3255C33.3802 41.2781 33.0979 41.9206 32.533 42.2418Z" stroke="#1C40D0" stroke-width="1.10769" stroke-linecap="round" stroke-linejoin="round"/>
<path opacity="0.1" d="M33.3802 40.3254C33.3802 41.2836 33.0979 41.9205 32.533 42.2417C31.9736 42.5574 31.2757 42.4799 30.445 41.998C29.6142 41.5217 28.9163 40.7962 28.3514 39.8269C27.792 38.8577 27.5095 37.894 27.5095 36.9414C27.5095 35.9888 27.792 35.3519 28.3514 35.0306C28.9163 34.7094 29.6142 34.7869 30.445 35.2688C31.2757 35.7506 31.9736 36.4706 32.533 37.4454C33.0979 38.4146 33.3802 39.3728 33.3802 40.3254Z" stroke="#1C40D0" stroke-width="1.10769" stroke-linecap="round" stroke-linejoin="round"/>
<path d="M29.7308 25.1168L24.5856 27.6922L24.209 27.8805C22.8908 28.6282 22.0821 29.9242 21.7831 31.7574C21.6889 32.3057 21.6446 32.9039 21.6446 33.5519C21.6446 33.9506 21.6613 34.3494 21.6945 34.7537L16.145 37.5285C17.8563 36.5537 18.7092 34.6651 18.7092 31.8571C18.7092 31.0872 18.6483 30.3174 18.5154 29.5365C18.1776 27.4706 17.3856 25.366 16.145 23.2226C15.0428 21.3229 13.7855 19.7389 12.3787 18.4817C11.6034 17.7839 10.7782 17.1857 9.90865 16.6817C7.64342 15.3691 5.68828 15.0922 4.05444 15.8399L14.7548 10.4897C16.4662 9.51492 18.5431 9.73092 20.9856 11.1432C23.4336 12.5555 25.5105 14.7322 27.2219 17.6842C28.6896 20.2152 29.5259 22.6909 29.7308 25.1168Z" stroke="#1C40D0" stroke-width="1.10769" stroke-linecap="round" stroke-linejoin="round"/>
<path opacity="0.1" d="M50.2668 36.9748L45.1216 39.5502L44.745 39.7385C43.4268 40.4862 42.6182 41.7767 42.3136 43.6155C42.2195 44.1638 42.1752 44.7619 42.1752 45.4099C42.1752 45.8087 42.1918 46.213 42.2306 46.6118L36.6755 49.3865C38.3869 48.4118 39.2453 46.5231 39.2453 43.7151C39.2453 42.9453 39.1788 42.1699 39.0514 41.389C38.708 39.3231 37.9161 37.2241 36.6755 35.0807C35.5733 33.181 34.3216 31.597 32.9149 30.3398C32.1395 29.6364 31.3142 29.0382 30.4447 28.5342C30.1733 28.3791 29.9074 28.2351 29.6471 28.1133C27.7086 27.1718 26.025 27.0333 24.585 27.6924L29.7302 25.117L35.2853 22.3422C36.9967 21.3675 39.0736 21.5835 41.5216 22.9958C43.9641 24.4081 46.041 26.5902 47.7524 29.5422C49.2201 32.0733 50.0618 34.549 50.2668 36.9748Z" stroke="#1C40D0" stroke-width="1.10769" stroke-linecap="round" stroke-linejoin="round"/>
<path opacity="0.1" d="M70.8534 50.0346C70.8534 52.8371 70.0005 54.7257 68.2891 55.706L67.9125 55.8943L57.2122 61.2444C58.9236 60.2641 59.7765 58.3755 59.7765 55.5731C59.7765 54.7977 59.7101 54.0223 59.5827 53.2414C59.2448 51.1755 58.4528 49.0764 57.2122 46.9386C56.1101 45.0389 54.8527 43.4549 53.4459 42.1977C52.6706 41.4943 51.8452 40.8906 50.9757 40.3921C50.7043 40.2371 50.444 40.0931 50.1837 39.9712C48.2508 39.0297 46.5616 38.8912 45.1216 39.5503L50.2667 36.9749L55.8221 34.2001C57.5334 33.2254 59.6104 33.4414 62.0528 34.8537C64.5008 36.266 66.5777 38.4481 68.2891 41.4001C70.0005 44.3466 70.8534 47.2266 70.8534 50.0346Z" stroke="#1C40D0" stroke-width="1.10769" stroke-linecap="round" stroke-linejoin="round"/>
</svg>
