<svg width="72" height="72" viewBox="0 0 72 72" fill="none" xmlns="http://www.w3.org/2000/svg">
<path d="M45.8379 53.5098L43.4048 54.9001L45.8379 59.1022L48.2151 57.6063L45.8379 53.5098Z" stroke="#1C40D0" stroke-width="2" stroke-linecap="round" stroke-linejoin="round"/>
<path d="M66.1407 54.5771L49.2766 64.1915L36.8628 70.3984L48.5193 63.7508L53.7269 60.784L66.1407 54.5771Z" stroke="#1C40D0" stroke-width="2" stroke-linecap="round" stroke-linejoin="round"/>
<path d="M66.1406 54.5776L53.7269 60.7845L46.1979 47.8741L45.8379 47.2596L58.2517 41.0527L66.1406 54.5776Z" stroke="#1C40D0" stroke-width="2" stroke-linecap="round" stroke-linejoin="round"/>
<path d="M28.4835 47.4146C28.3035 48.4636 27.8318 49.2022 27.0621 49.6367L26.7456 49.7918L14.6483 55.8436C15.6538 55.2725 16.1566 54.1801 16.1566 52.5601C16.1566 50.9401 15.6538 49.2642 14.6483 47.5325C13.6428 45.8008 12.4387 44.5284 11.0235 43.7091C9.7573 42.9829 8.65868 42.8091 7.72144 43.1939L19.8187 37.1422C20.2904 36.8753 20.8055 36.7573 21.3704 36.8008C21.3145 37.1236 21.2835 37.4773 21.2835 37.8622C21.2835 39.4822 21.7862 41.158 22.7918 42.8898C23.7973 44.6215 25.0014 45.8939 26.4166 46.707C27.1614 47.1415 27.8504 47.3773 28.4835 47.4146Z" stroke="#1C40D0" stroke-width="2" stroke-linecap="round" stroke-linejoin="round"/>
<path d="M43.8702 38.6444C43.6902 39.6934 43.2123 40.432 42.4488 40.8665L42.1323 41.0217L30.0351 47.0734C31.0406 46.5024 31.5433 45.4037 31.5433 43.7837C31.5433 42.1637 31.0406 40.4941 30.0351 38.7562C29.0295 37.0244 27.8254 35.752 26.4164 34.9389C25.144 34.2065 24.0454 34.0327 23.1082 34.4175L35.2054 28.3658C35.6771 28.0989 36.1985 27.981 36.7571 28.0244C36.7013 28.3472 36.6702 28.7072 36.6702 29.092C36.6702 30.7058 37.173 32.3817 38.1785 34.1134C39.184 35.8513 40.3882 37.1237 41.8033 37.9368C42.5482 38.3651 43.2371 38.6072 43.8702 38.6444Z" stroke="#1C40D0" stroke-width="2" stroke-linecap="round" stroke-linejoin="round"/>
<path d="M28.4835 29.7554C28.3035 30.8044 27.8318 31.543 27.0621 31.9837L26.7456 32.1389L14.6483 38.1906C15.6538 37.6133 16.1566 36.5209 16.1566 34.9009C16.1566 33.2809 15.6538 31.6051 14.6483 29.8733C13.6428 28.1416 12.4387 26.8692 11.0235 26.0561C9.7573 25.3237 8.65868 25.1499 7.72144 25.5347L19.8187 19.483C20.2904 19.2161 20.8118 19.0982 21.3704 19.1416C21.3145 19.4644 21.2835 19.8182 21.2835 20.203C21.2835 21.823 21.7862 23.4989 22.7918 25.2306C23.7973 26.9623 25.0014 28.2347 26.4166 29.054C27.1614 29.4885 27.8566 29.7182 28.4835 29.7554Z" stroke="#1C40D0" stroke-width="2" stroke-linecap="round" stroke-linejoin="round"/>
<path d="M46.1979 47.8742L45.8379 47.2598L28.98 56.7998V65.8494L36.8627 70.399L48.5193 63.7514L53.7269 60.7846L46.1979 47.8742ZM45.8379 59.1025L43.4048 54.9005L45.8379 53.5101L48.2152 57.6067L45.8379 59.1025Z" stroke="#1C40D0" stroke-width="2" stroke-linecap="round" stroke-linejoin="round"/>
<path d="M16.1565 52.5604C16.1565 54.1804 15.6537 55.2728 14.6482 55.8439C13.6427 56.4211 12.4386 56.297 11.0234 55.4839C9.61442 54.6707 8.41028 53.3983 7.40476 51.6604C6.39924 49.9287 5.89648 48.2528 5.89648 46.639C5.89648 45.0252 6.39924 43.9204 7.40476 43.3494L7.72131 43.1942C8.65855 42.8094 9.75717 42.9832 11.0234 43.7094C12.4386 44.5287 13.6427 45.8011 14.6482 47.5328C15.6537 49.2645 16.1565 50.9404 16.1565 52.5604Z" stroke="#1C40D0" stroke-width="2" stroke-linecap="round" stroke-linejoin="round"/>
<path d="M31.5434 43.7838C31.5434 45.4038 31.0407 46.5024 30.0352 47.0734C29.5634 47.3403 29.0421 47.4583 28.4834 47.4148C27.8503 47.3776 27.1614 47.1417 26.4166 46.7072C25.0014 45.8941 23.7972 44.6217 22.7917 42.89C21.7862 41.1583 21.2834 39.4824 21.2834 37.8624C21.2834 37.4776 21.3145 37.1238 21.3703 36.801C21.5503 35.7521 22.0221 35.0134 22.7917 34.5728L23.1083 34.4176C24.0455 34.0327 25.1441 34.2065 26.4166 34.939C27.8255 35.7521 29.0297 37.0245 30.0352 38.7562C31.0407 40.4941 31.5434 42.17 31.5434 43.7838Z" stroke="#1C40D0" stroke-width="2" stroke-linecap="round" stroke-linejoin="round"/>
<path d="M46.9304 35.0135C46.9304 36.6335 46.4277 37.7259 45.4221 38.297C44.9504 38.5701 44.429 38.688 43.8704 38.6446C43.2373 38.6073 42.5483 38.3653 41.8035 37.937C40.3883 37.1239 39.1842 35.8515 38.1787 34.1135C37.1732 32.3818 36.6704 30.7059 36.6704 29.0922C36.6704 28.7073 36.7014 28.3473 36.7573 28.0246C36.9373 26.9756 37.4152 26.237 38.1787 25.8025L38.4952 25.6473C39.4325 25.2625 40.5373 25.4363 41.8035 26.1625C43.2125 26.9818 44.4166 28.2542 45.4221 29.9859C46.4277 31.7177 46.9304 33.3935 46.9304 35.0135Z" stroke="#1C40D0" stroke-width="2" stroke-linecap="round" stroke-linejoin="round"/>
<path d="M16.1565 34.9019C16.1565 36.5219 15.6537 37.6144 14.6482 38.1916C13.6427 38.7626 12.4386 38.6385 11.0234 37.8254C9.61442 37.0123 8.41028 35.7399 7.40476 34.0082C6.39924 32.2702 5.89648 30.5944 5.89648 28.9806C5.89648 27.3668 6.39924 26.2619 7.40476 25.6909L7.72131 25.5357C8.65855 25.1509 9.75717 25.3247 11.0234 26.0571C12.4386 26.8702 13.6427 28.1426 14.6482 29.8744C15.6537 31.6061 16.1565 33.2819 16.1565 34.9019Z" stroke="#1C40D0" stroke-width="2" stroke-linecap="round" stroke-linejoin="round"/>
<path d="M31.5434 26.1253C31.5434 27.7453 31.0407 28.8439 30.0352 29.415C29.5634 29.6819 29.0483 29.7998 28.4834 29.7564C27.8565 29.7191 27.1614 29.4895 26.4166 29.055C25.0014 28.2357 23.7972 26.9632 22.7917 25.2315C21.7862 23.4998 21.2834 21.8239 21.2834 20.2039C21.2834 19.8191 21.3145 19.4653 21.3703 19.1426C21.5503 18.0936 22.0221 17.355 22.7917 16.9205L23.1083 16.7653C24.0455 16.3743 25.1503 16.5543 26.4166 17.2805C27.8255 18.0936 29.0297 19.366 30.0352 21.1039C31.0407 22.8357 31.5434 24.5115 31.5434 26.1253Z" stroke="#1C40D0" stroke-width="2" stroke-linecap="round" stroke-linejoin="round"/>
<path d="M16.1565 17.2428C16.1565 18.8628 15.6537 19.9552 14.6482 20.5324C13.6427 21.1035 12.4386 20.9793 11.0234 20.1662C9.61442 19.3531 8.41028 18.0807 7.40476 16.349C6.39924 14.6173 5.89648 12.9414 5.89648 11.3214C5.89648 9.70139 6.39924 8.60898 7.40476 8.03173L7.72131 7.87656C8.65855 7.49173 9.75717 7.66553 11.0234 8.39794C12.4386 9.21104 13.6427 10.4835 14.6482 12.2152C15.6537 13.9469 16.1565 15.6228 16.1565 17.2428Z" stroke="#1C40D0" stroke-width="2" stroke-linecap="round" stroke-linejoin="round"/>
<path d="M28.5704 11.0359C28.5704 12.6559 28.0676 13.7483 27.0621 14.3256L26.7456 14.4807L14.6483 20.5324C15.6538 19.9552 16.1566 18.8628 16.1566 17.2428C16.1566 15.6228 15.6538 13.9469 14.6483 12.2152C13.6428 10.4835 12.4387 9.21107 11.0235 8.39796C9.7573 7.66555 8.65868 7.49176 7.72144 7.87658L19.8187 1.82489C20.8242 1.25385 22.0283 1.37799 23.4373 2.19109C24.8524 3.0042 26.0566 4.27661 27.0621 6.00833C28.0676 7.74003 28.5704 9.4159 28.5704 11.0359Z" stroke="#1C40D0" stroke-width="2" stroke-linecap="round" stroke-linejoin="round"/>
<path d="M43.9571 19.9175C43.9571 21.5375 43.4544 22.6361 42.4488 23.2071L42.1323 23.3623L30.0351 29.414C31.0406 28.843 31.5433 27.7444 31.5433 26.1244C31.5433 24.5044 31.0406 22.8347 30.0351 21.103C29.0295 19.3651 27.8254 18.0926 26.4164 17.2795C25.1502 16.5533 24.0454 16.3733 23.1082 16.7644L35.2054 10.7126C36.2109 10.1354 37.4151 10.2595 38.8302 11.0726C40.2392 11.8857 41.4433 13.1582 42.4488 14.8961C43.4544 16.6278 43.9571 18.3037 43.9571 19.9175Z" stroke="#1C40D0" stroke-width="2" stroke-linecap="round" stroke-linejoin="round"/>
<path d="M59.3441 28.8068C59.3441 30.4268 58.8413 31.5192 57.8358 32.0902L57.5193 32.2454L45.422 38.2971C46.4275 37.7261 46.9303 36.6337 46.9303 35.0137C46.9303 33.3937 46.4275 31.7178 45.422 29.9861C44.4165 28.2544 43.2124 26.9819 41.8034 26.1626C40.5372 25.4364 39.4324 25.2626 38.4951 25.6475L50.5924 19.5957C51.5979 19.0247 52.802 19.1426 54.2172 19.9557C55.6262 20.775 56.8303 22.0475 57.8358 23.7792C58.8413 25.5109 59.3441 27.1868 59.3441 28.8068Z" stroke="#1C40D0" stroke-width="2" stroke-linecap="round" stroke-linejoin="round"/>
</svg>
