<svg width="72" height="72" viewBox="0 0 72 72" fill="none" xmlns="http://www.w3.org/2000/svg">
<path d="M56.3661 53.4345L51.7076 56.1914L45.363 45.2499L38.6984 33.7545L33.0553 24.0191V70.5542L26.3907 66.7081V20.1729L19.6707 24.0006L7.73836 30.8068L3.07373 22.6652L29.7199 7.47754L30.0953 8.12369L34.803 16.2406L38.6984 22.9606L45.363 34.456L56.3661 53.4345Z" stroke="#1C40D0" stroke-width="1.23077" stroke-linecap="round" stroke-linejoin="round"/>
<path d="M26.3907 20.1729V21.0344L20.0461 24.6529L7.7384 30.8067L19.6707 24.0005L26.3907 20.1729Z" stroke="#1C40D0" stroke-width="1.23077" stroke-linecap="round" stroke-linejoin="round"/>
<path d="M68.6739 47.2803L64.0154 50.0372L51.7076 56.191L56.3661 53.4341L68.6739 47.2803Z" stroke="#1C40D0" stroke-width="1.23077" stroke-linecap="round" stroke-linejoin="round"/>
<path d="M68.6739 47.2802L56.3661 53.434L45.363 34.4556L38.6984 22.9602L34.803 16.2402L30.0954 8.12325L29.72 7.4771L42.0277 1.32324L68.6739 47.2802Z" stroke="#1C40D0" stroke-width="1.23077" stroke-linecap="round" stroke-linejoin="round"/>
<path d="M45.363 45.2493V64.3998L33.0553 70.5537V24.0186L38.6984 33.7539L45.363 45.2493Z" stroke="#1C40D0" stroke-width="1.23077" stroke-linecap="round" stroke-linejoin="round"/>
</svg>
