<svg width="72" height="72" viewBox="0 0 72 72" fill="none" xmlns="http://www.w3.org/2000/svg">
<g clip-path="url(#clip0_6306_41)">
<path d="M43.5089 57.0073C43.5089 59.736 43.0248 61.7387 42.0507 63.0033C41.7059 63.4449 41.3065 63.8019 40.8406 64.0681L40.4535 64.2618C38.4145 65.1451 35.8915 64.9696 32.8844 63.7354V70.7478L27.0638 67.3838V60.2019C24.4924 58.054 22.2719 55.4886 20.4023 52.5179C18.5327 49.5471 17.1655 46.0863 16.2942 42.1293L21.679 42.7344C22.4051 45.8261 23.4821 48.4823 24.9161 50.6967C26.344 52.9172 28.2255 54.696 30.5549 56.0392C32.5455 57.1888 34.2276 57.6486 35.6131 57.4187C36.9987 57.1828 37.6884 55.9848 37.6884 53.8127C37.6884 53.4678 37.6703 53.1229 37.6401 52.7841C37.4828 51.211 36.9684 49.6984 36.0851 48.2523C35.1473 46.7034 33.1022 44.3982 29.962 41.3307C29.5506 40.9313 29.115 40.5139 28.6612 40.0843C28.4615 39.8967 28.2679 39.7152 28.0804 39.5337C27.2938 38.7834 26.5617 38.0513 25.878 37.3374C23.1916 34.536 21.2556 32.007 20.0757 29.7381C18.5207 26.7552 17.7462 23.7602 17.7462 20.7532C17.7462 17.135 18.7627 14.9145 20.8017 14.0856C22.8407 13.2567 24.928 13.3233 27.0638 14.2732V7.26074L30.4945 9.23923L31.039 9.55385L32.8844 10.6187V17.6372C34.0582 18.5327 35.1352 19.5007 36.1154 20.5535C37.15 21.6668 38.0756 22.8648 38.8864 24.1535C39.322 24.8433 39.7274 25.5391 40.0904 26.2409C41.0706 28.0923 41.8148 29.9922 42.3472 31.9525L38.3055 31.6197L36.9624 31.5108C36.7567 30.7727 36.5268 30.0769 36.2606 29.4113C35.7705 28.171 35.1835 27.0577 34.4877 26.0775C33.8403 25.17 33.0538 24.3411 32.1281 23.5908C31.5231 23.0947 30.8514 22.6409 30.1193 22.2174C27.9835 20.9891 26.3559 20.5898 25.2427 21.0315C24.1294 21.4732 23.5668 22.5018 23.5668 24.1172C23.5668 25.9505 24.2988 27.8201 25.7509 29.7199C27.0699 31.4382 29.2663 33.7071 32.3278 36.5206C32.5335 36.7142 32.7452 36.9078 32.957 37.0954C33.078 37.2103 33.199 37.3192 33.32 37.4281C33.6165 37.7004 33.9129 37.9727 34.1973 38.251C37.1136 41.0584 39.3523 44.011 40.9254 47.1209C41.3429 47.9559 41.718 48.7848 42.0326 49.6076C43.0188 52.1428 43.5089 54.6053 43.5089 57.0073Z" stroke="#1C40D0" stroke-width="2" stroke-linecap="round" stroke-linejoin="round"/>
<path d="M44.9852 4.56794L32.8844 10.6184L31.039 9.55349L30.4945 9.23887L27.0638 7.26038L39.1647 1.20996L44.9852 4.56794Z" stroke="#1C40D0" stroke-width="2" stroke-linecap="round" stroke-linejoin="round"/>
<path d="M44.9859 4.56836V11.5868L38.524 14.8177L36.1281 16.0157L32.885 17.6372V10.6187L44.9859 4.56836Z" stroke="#1C40D0" stroke-width="2" stroke-linecap="round" stroke-linejoin="round"/>
<path d="M55.6101 50.957C55.6101 54.9079 54.5936 57.3281 52.5546 58.2114L44.9856 61.9989L42.4808 63.2514L40.841 64.0682C41.3069 63.802 41.7062 63.445 42.0511 63.0033C43.0252 61.7388 43.5093 59.7361 43.5093 57.0074C43.5093 54.6054 43.0191 52.1429 42.0328 49.6077C41.7182 48.7849 41.3432 47.956 40.9257 47.121C39.3526 44.0111 37.1139 41.0585 34.1976 38.2511C33.9132 37.9728 33.6168 37.7005 33.3203 37.4282C33.1993 37.3193 33.0782 37.2104 32.9572 37.0955C32.7454 36.9079 32.5339 36.7143 32.3281 36.5207C29.2666 33.7072 27.0702 31.4383 25.7512 29.72C24.2991 27.8202 23.5671 25.9506 23.5671 24.1173C23.5671 22.5019 24.1296 21.4733 25.2429 21.0316C26.3562 20.5899 27.9838 20.9893 30.1196 22.2175C30.8517 22.641 31.5234 23.0948 32.1284 23.5909C33.0541 24.3412 33.8406 25.1701 34.488 26.0777C35.1838 27.0578 35.7708 28.1711 36.2609 29.4114C36.5271 30.077 36.757 30.7728 36.9627 31.5109L38.3058 31.6198L42.3475 31.9526L44.7376 30.7546C44.9614 30.9604 45.1852 31.1661 45.4211 31.3778C48.767 34.4272 51.3022 37.6582 53.0266 41.0706C54.7509 44.4891 55.6101 47.7805 55.6101 50.957Z" stroke="#1C40D0" stroke-width="2" stroke-linecap="round" stroke-linejoin="round"/>
<path d="M44.9859 61.999V64.6975L32.885 70.7479V63.7355C35.8921 64.9698 38.4151 65.1452 40.4541 64.2619L40.8413 64.0683L42.481 63.2515L44.9859 61.999Z" stroke="#1C40D0" stroke-width="2" stroke-linecap="round" stroke-linejoin="round"/>
<path d="M54.448 25.9022L44.7372 30.7546L42.3472 31.9526C41.8148 29.9923 41.0706 28.0925 40.0904 26.241C39.7274 25.5392 39.322 24.8434 38.8864 24.1536C38.0756 22.8649 37.15 21.6669 36.1154 20.5536C35.1352 19.5009 34.0582 18.5328 32.8844 17.6373L36.1275 16.0158L38.5235 14.8178L44.9852 11.5869C47.4115 13.4323 49.4141 15.6044 50.9872 18.1032C52.5664 20.596 53.7159 23.1977 54.448 25.9022Z" stroke="#1C40D0" stroke-width="2" stroke-linecap="round" stroke-linejoin="round"/>
<path d="M27.064 10.957L20.8019 14.0851" stroke="#1C40D0" stroke-width="2" stroke-linecap="round" stroke-linejoin="round"/>
<path d="M37.6881 53.8122C37.6881 55.9843 36.9984 57.1823 35.6128 57.4182C34.2273 57.6482 32.5452 57.1883 30.5546 56.0387C28.2252 54.6956 26.3436 52.9167 24.9157 50.6962C23.4818 48.4818 22.4048 45.8256 21.6787 42.7339L28.0801 39.5332C28.2677 39.7147 28.4612 39.8962 28.6609 40.0838C29.1147 40.5134 29.5502 40.9308 29.9617 41.3302C33.1018 44.3977 35.1469 46.7029 36.0848 48.2519C36.9681 49.6979 37.4825 51.2105 37.6398 52.7836C37.67 53.1224 37.6881 53.4673 37.6881 53.8122Z" stroke="#1C40D0" stroke-width="2" stroke-linecap="round" stroke-linejoin="round"/>
<path d="M28.0804 39.5332L21.679 42.7339L16.2942 42.1288L25.878 37.3369C26.5617 38.0509 27.2938 38.783 28.0804 39.5332Z" stroke="#1C40D0" stroke-width="2" stroke-linecap="round" stroke-linejoin="round"/>
</g>
<defs>
<clipPath id="clip0_6306_41">
<rect width="72" height="72" fill="white"/>
</clipPath>
</defs>
</svg>
