<svg width="72" height="72" viewBox="0 0 72 72" fill="none" xmlns="http://www.w3.org/2000/svg">
<path d="M53.0483 50.5999V70.5403L35.6768 60.5029V53.8582L43.2062 58.2086L39.5268 51.93L33.9377 42.3869L38.1358 39.9951L43.7676 49.8127L47.2578 55.8961V47.2561L53.0483 50.5999Z" stroke="#1C40D0" stroke-width="1.22034" stroke-linecap="round" stroke-linejoin="round"/>
<path d="M53.0481 17.3642V37.3045L51.9254 36.6578L48.7281 34.8089L48.6244 34.7479L47.2577 33.9608V25.3208L42.4922 28.0361L31.0393 34.571L6.71191 20.5249V13.874L28.7206 26.5839L34.383 23.3561L40.1796 20.055L43.206 18.3283L35.6767 13.9778V7.33301L49.7409 15.4544L53.0481 17.3642Z" stroke="#1C40D0" stroke-width="1.22034" stroke-linecap="round" stroke-linejoin="round"/>
<path d="M65.2517 44.498V64.4386L53.0483 70.5403V50.5997L54.1893 50.0262L58.3934 47.9272L59.4612 47.3964L65.2517 44.498Z" stroke="#1C40D0" stroke-width="1.22034" stroke-linecap="round" stroke-linejoin="round"/>
<path d="M55.6107 43.0829L51.3639 45.2002L47.2575 47.2565V55.8965L43.7674 49.8131L38.1355 39.9954L48.6243 34.748L48.728 34.809L51.9253 36.6579L55.6107 43.0829Z" stroke="#1C40D0" stroke-width="1.22034" stroke-linecap="round" stroke-linejoin="round"/>
<path d="M47.2577 25.3203V26.1807L43.2427 28.4688L31.0393 34.5705L42.4922 28.0356L47.2577 25.3203Z" stroke="#1C40D0" stroke-width="1.22034" stroke-linecap="round" stroke-linejoin="round"/>
<path d="M65.2519 11.2626L53.0485 17.3643L49.7413 15.4545L35.677 7.33313L47.8804 1.23145L65.2519 11.2626Z" stroke="#1C40D0" stroke-width="1.22034" stroke-linecap="round" stroke-linejoin="round"/>
<path d="M65.2512 11.2627V31.203L53.0479 37.3047V17.3644L65.2512 11.2627Z" stroke="#1C40D0" stroke-width="1.22034" stroke-linecap="round" stroke-linejoin="round"/>
<path d="M40.1796 20.0552L34.383 23.3562L28.7206 26.584L6.71191 13.8742L18.9153 7.77246L40.1796 20.0552Z" stroke="#1C40D0" stroke-width="1.22034" stroke-linecap="round" stroke-linejoin="round"/>
<path d="M65.2517 44.498L59.4612 47.3963L58.3934 47.9271L54.1893 50.0261L53.0483 50.5997L47.2578 47.256L51.3643 45.1997L55.611 43.0824L59.4612 41.1543L65.2517 44.498Z" stroke="#1C40D0" stroke-width="1.22034" stroke-linecap="round" stroke-linejoin="round"/>
<path d="M43.2059 58.2093L35.6765 53.8588L39.5266 51.9307L43.2059 58.2093Z" stroke="#1C40D0" stroke-width="1.22034" stroke-linecap="round" stroke-linejoin="round"/>
</svg>
